<mxfile host="app.diagrams.net" modified="2023-06-12T01:58:58.853Z" agent="Mozilla/5.0 (Windows NT 10.0; Win64; x64) AppleWebKit/537.36 (KHTML, like Gecko) Chrome/114.0.0.0 Safari/537.36" etag="NkvbLUYkv3i6ZS0EXWz9" version="21.3.8" type="device">
  <diagram name="Page-1" id="poi2T2rggzBqeiJwVbVU">
    <mxGraphModel dx="4607" dy="1344" grid="0" gridSize="9" guides="1" tooltips="1" connect="1" arrows="1" fold="1" page="0" pageScale="1" pageWidth="850" pageHeight="1100" math="0" shadow="0">
      <root>
        <mxCell id="0" />
        <mxCell id="1" parent="0" />
        <mxCell id="p1Gjewepy9sjovdagzMy-1" value="multiSS module&amp;nbsp;&lt;b&gt;init&lt;/b&gt;&lt;br&gt;&lt;ul&gt;&lt;li&gt;self.counter = 0&lt;/li&gt;&lt;li&gt;coeff[np array]&lt;/li&gt;&lt;li&gt;self.secondTarget = None&lt;/li&gt;&lt;li&gt;self.ko = 1&lt;/li&gt;&lt;li&gt;self.count_1 = 0&lt;/li&gt;&lt;/ul&gt;" style="rounded=1;whiteSpace=wrap;html=1;fontSize=16;fillColor=#d5e8d4;gradientColor=#97d077;strokeColor=#82b366;" parent="1" vertex="1">
          <mxGeometry x="296" y="204" width="247" height="174" as="geometry" />
        </mxCell>
        <mxCell id="p1Gjewepy9sjovdagzMy-9" style="edgeStyle=orthogonalEdgeStyle;rounded=0;orthogonalLoop=1;jettySize=auto;html=1;entryX=0.5;entryY=0;entryDx=0;entryDy=0;" parent="1" source="p1Gjewepy9sjovdagzMy-4" target="p1Gjewepy9sjovdagzMy-8" edge="1">
          <mxGeometry relative="1" as="geometry" />
        </mxCell>
        <mxCell id="p1Gjewepy9sjovdagzMy-4" value="run_sim" style="rounded=1;whiteSpace=wrap;html=1;fontSize=16;" parent="1" vertex="1">
          <mxGeometry x="586" y="374" width="120" height="60" as="geometry" />
        </mxCell>
        <mxCell id="p1Gjewepy9sjovdagzMy-5" value="Values defined as &lt;br&gt;default in __init__" style="text;html=1;align=center;verticalAlign=middle;resizable=0;points=[];autosize=1;strokeColor=none;fillColor=none;fontSize=16;" parent="1" vertex="1">
          <mxGeometry x="678" y="243" width="144" height="50" as="geometry" />
        </mxCell>
        <mxCell id="p1Gjewepy9sjovdagzMy-7" value="" style="curved=1;endArrow=classic;html=1;rounded=0;entryX=1;entryY=0.5;entryDx=0;entryDy=0;exitX=0.5;exitY=0;exitDx=0;exitDy=0;" parent="1" source="p1Gjewepy9sjovdagzMy-4" target="p1Gjewepy9sjovdagzMy-1" edge="1">
          <mxGeometry width="50" height="50" relative="1" as="geometry">
            <mxPoint x="638" y="382" as="sourcePoint" />
            <mxPoint x="663" y="249" as="targetPoint" />
            <Array as="points">
              <mxPoint x="663" y="299" />
              <mxPoint x="613" y="249" />
            </Array>
          </mxGeometry>
        </mxCell>
        <mxCell id="p1Gjewepy9sjovdagzMy-34" style="edgeStyle=orthogonalEdgeStyle;rounded=0;orthogonalLoop=1;jettySize=auto;html=1;entryX=1;entryY=0.5;entryDx=0;entryDy=0;" parent="1" source="p1Gjewepy9sjovdagzMy-8" target="p1Gjewepy9sjovdagzMy-17" edge="1">
          <mxGeometry relative="1" as="geometry" />
        </mxCell>
        <mxCell id="p1Gjewepy9sjovdagzMy-49" style="edgeStyle=orthogonalEdgeStyle;rounded=0;orthogonalLoop=1;jettySize=auto;html=1;fontSize=18;entryX=0.5;entryY=0;entryDx=0;entryDy=0;" parent="1" source="p1Gjewepy9sjovdagzMy-8" target="p1Gjewepy9sjovdagzMy-50" edge="1">
          <mxGeometry relative="1" as="geometry">
            <mxPoint x="646" y="704.5999999999999" as="targetPoint" />
          </mxGeometry>
        </mxCell>
        <mxCell id="MMasnTg1ly4rQGJmZYbG-1" style="edgeStyle=orthogonalEdgeStyle;rounded=0;orthogonalLoop=1;jettySize=auto;html=1;" parent="1" source="p1Gjewepy9sjovdagzMy-8" edge="1">
          <mxGeometry relative="1" as="geometry">
            <mxPoint x="973.3333333333339" y="528.9199999999998" as="targetPoint" />
          </mxGeometry>
        </mxCell>
        <mxCell id="p1Gjewepy9sjovdagzMy-8" value="next_target" style="rounded=1;whiteSpace=wrap;html=1;absoluteArcSize=1;arcSize=14;strokeWidth=2;fontSize=16;" parent="1" vertex="1">
          <mxGeometry x="596" y="478.92" width="100" height="100" as="geometry" />
        </mxCell>
        <mxCell id="p1Gjewepy9sjovdagzMy-10" value="&lt;div style=&quot;text-align: justify; font-size: 15px;&quot;&gt;&lt;span style=&quot;background-color: initial; font-size: 15px;&quot;&gt;Arrow denotes being called by&lt;/span&gt;&lt;/div&gt;&lt;div style=&quot;text-align: justify; font-size: 15px;&quot;&gt;&lt;span style=&quot;background-color: initial; font-size: 15px;&quot;&gt;upstream method, unless specified&lt;/span&gt;&lt;/div&gt;" style="text;html=1;align=center;verticalAlign=middle;resizable=0;points=[];autosize=1;strokeColor=none;fillColor=none;fontSize=15;" parent="1" vertex="1">
          <mxGeometry x="-1022" y="253" width="250" height="48" as="geometry" />
        </mxCell>
        <mxCell id="p1Gjewepy9sjovdagzMy-11" value="&#xa;&lt;div style=&quot;color: rgb(212, 212, 212); background-color: rgb(30, 30, 30); font-family: Consolas, &amp;quot;Courier New&amp;quot;, monospace; font-weight: normal; font-size: 15px; line-height: 19px;&quot;&gt;&lt;div style=&quot;font-size: 15px;&quot;&gt;&lt;span style=&quot;color: rgb(156, 220, 254); font-size: 15px;&quot;&gt;self&lt;/span&gt;&lt;span style=&quot;color: rgb(212, 212, 212); font-size: 15px;&quot;&gt;.&lt;/span&gt;&lt;span style=&quot;color: rgb(156, 220, 254); font-size: 15px;&quot;&gt;DRM&lt;/span&gt;&lt;span style=&quot;color: rgb(212, 212, 212); font-size: 15px;&quot;&gt;[-&lt;/span&gt;&lt;span style=&quot;color: rgb(181, 206, 168); font-size: 15px;&quot;&gt;1&lt;/span&gt;&lt;span style=&quot;color: rgb(212, 212, 212); font-size: 15px;&quot;&gt;][&lt;/span&gt;&lt;span style=&quot;color: rgb(206, 145, 120); font-size: 15px;&quot;&gt;&quot;star_ind&quot;&lt;/span&gt;&lt;span style=&quot;color: rgb(212, 212, 212); font-size: 15px;&quot;&gt;][-&lt;/span&gt;&lt;span style=&quot;color: rgb(181, 206, 168); font-size: 15px;&quot;&gt;2&lt;/span&gt;&lt;span style=&quot;color: rgb(212, 212, 212); font-size: 15px;&quot;&gt;]&lt;/span&gt;&lt;/div&gt;&lt;/div&gt;&#xa;&#xa;" style="text;html=1;align=center;verticalAlign=middle;resizable=0;points=[];autosize=1;strokeColor=none;fillColor=none;fontSize=15;" parent="1" vertex="1">
          <mxGeometry x="-1036" y="439" width="249" height="85" as="geometry" />
        </mxCell>
        <mxCell id="p1Gjewepy9sjovdagzMy-12" value="&lt;b&gt;Notes:&lt;/b&gt;" style="text;html=1;align=center;verticalAlign=middle;resizable=0;points=[];autosize=1;strokeColor=none;fillColor=none;" parent="1" vertex="1">
          <mxGeometry x="-965" y="211" width="60" height="30" as="geometry" />
        </mxCell>
        <mxCell id="p1Gjewepy9sjovdagzMy-13" value="Gives the index of Target observed 2 steps back" style="text;html=1;align=center;verticalAlign=middle;resizable=0;points=[];autosize=1;strokeColor=none;fillColor=none;fontSize=15;" parent="1" vertex="1">
          <mxGeometry x="-794" y="459" width="338" height="30" as="geometry" />
        </mxCell>
        <mxCell id="p1Gjewepy9sjovdagzMy-14" value="&lt;div style=&quot;text-align: justify; font-size: 15px;&quot;&gt;&lt;span style=&quot;background-color: initial; font-size: 15px;&quot;&gt;if the sequence of observation is [1,2,3,4];&lt;/span&gt;&lt;/div&gt;&lt;div style=&quot;text-align: justify; font-size: 15px;&quot;&gt;&lt;span style=&quot;background-color: initial; font-size: 15px;&quot;&gt;4 is the target for which observation was completed at currentTime,&lt;/span&gt;&lt;/div&gt;&lt;div style=&quot;text-align: justify; font-size: 15px;&quot;&gt;&lt;span style=&quot;background-color: initial; font-size: 15px;&quot;&gt;step1 : &lt;b style=&quot;font-size: 15px;&quot;&gt;4&lt;/b&gt; , step 2 :&lt;b style=&quot;font-size: 15px;&quot;&gt;3, &lt;/b&gt;syntax below would pop 3 as result&lt;/span&gt;&lt;/div&gt;" style="text;html=1;align=center;verticalAlign=middle;resizable=0;points=[];autosize=1;strokeColor=none;fillColor=none;fontSize=15;" parent="1" vertex="1">
          <mxGeometry x="-1025" y="333" width="463" height="66" as="geometry" />
        </mxCell>
        <mxCell id="p1Gjewepy9sjovdagzMy-15" value="TwoStarShade_mission module &lt;b&gt;init&lt;/b&gt;:&lt;br&gt;&lt;ul&gt;&lt;li&gt;Counter, counter_1, counter_2 counter_3 = 0&lt;/li&gt;&lt;li&gt;scMass=[6000.0, 6000.0]&lt;/li&gt;&lt;li&gt;dryMass=[3400.0, 3400.0]&lt;/li&gt;&lt;/ul&gt;" style="rounded=1;whiteSpace=wrap;html=1;fontSize=16;fillColor=#fff2cc;gradientColor=#ffd966;strokeColor=#d6b656;" parent="1" vertex="1">
          <mxGeometry x="-109.58" y="253" width="299" height="148" as="geometry" />
        </mxCell>
        <mxCell id="Y4v3uxrNZRps0fwALOIX-1" style="edgeStyle=orthogonalEdgeStyle;rounded=0;orthogonalLoop=1;jettySize=auto;html=1;entryX=0.5;entryY=1;entryDx=0;entryDy=0;" edge="1" parent="1" source="p1Gjewepy9sjovdagzMy-17" target="p1Gjewepy9sjovdagzMy-15">
          <mxGeometry relative="1" as="geometry" />
        </mxCell>
        <mxCell id="Y4v3uxrNZRps0fwALOIX-3" value="" style="edgeStyle=orthogonalEdgeStyle;rounded=0;orthogonalLoop=1;jettySize=auto;html=1;" edge="1" parent="1" source="p1Gjewepy9sjovdagzMy-17" target="p1Gjewepy9sjovdagzMy-23">
          <mxGeometry relative="1" as="geometry" />
        </mxCell>
        <mxCell id="p1Gjewepy9sjovdagzMy-17" value="TwoStarShades_mission observatory module(Obs)" style="rounded=1;whiteSpace=wrap;html=1;fontSize=16;" parent="1" vertex="1">
          <mxGeometry x="-66" y="489" width="211.85" height="79.85" as="geometry" />
        </mxCell>
        <mxCell id="p1Gjewepy9sjovdagzMy-20" value="sd : angular separation" style="text;html=1;align=center;verticalAlign=middle;resizable=0;points=[];autosize=1;strokeColor=none;fillColor=none;fontSize=16;" parent="1" vertex="1">
          <mxGeometry x="-1029" y="499" width="181" height="31" as="geometry" />
        </mxCell>
        <mxCell id="p1Gjewepy9sjovdagzMy-21" style="edgeStyle=orthogonalEdgeStyle;rounded=0;orthogonalLoop=1;jettySize=auto;html=1;exitX=0;exitY=0.5;exitDx=0;exitDy=0;entryX=1.022;entryY=0.554;entryDx=0;entryDy=0;entryPerimeter=0;fontSize=16;fontColor=#000000;" parent="1" source="p1Gjewepy9sjovdagzMy-23" target="p1Gjewepy9sjovdagzMy-24" edge="1">
          <mxGeometry relative="1" as="geometry" />
        </mxCell>
        <mxCell id="p1Gjewepy9sjovdagzMy-22" value="" style="edgeStyle=orthogonalEdgeStyle;rounded=0;orthogonalLoop=1;jettySize=auto;html=1;fontSize=16;fontColor=#000000;" parent="1" source="p1Gjewepy9sjovdagzMy-23" target="p1Gjewepy9sjovdagzMy-27" edge="1">
          <mxGeometry relative="1" as="geometry" />
        </mxCell>
        <mxCell id="p1Gjewepy9sjovdagzMy-23" value="Methods which keep track of different StarShade attributes such as mass_used, deltaV" style="rounded=1;whiteSpace=wrap;html=1;fontSize=16;fontColor=#000000;" parent="1" vertex="1">
          <mxGeometry x="-54.58000000000004" y="618" width="189" height="125" as="geometry" />
        </mxCell>
        <mxCell id="p1Gjewepy9sjovdagzMy-24" value="mass usage&lt;br&gt;Forces on starshade&lt;br&gt;log_OcculterResults" style="text;html=1;align=center;verticalAlign=middle;resizable=0;points=[];autosize=1;strokeColor=none;fillColor=none;fontSize=16;fontColor=#000000;" parent="1" vertex="1">
          <mxGeometry x="-289" y="642" width="164" height="70" as="geometry" />
        </mxCell>
        <mxCell id="p1Gjewepy9sjovdagzMy-25" style="edgeStyle=orthogonalEdgeStyle;rounded=0;orthogonalLoop=1;jettySize=auto;html=1;fontSize=16;fontColor=#000000;entryX=1;entryY=0.5;entryDx=0;entryDy=0;" parent="1" source="p1Gjewepy9sjovdagzMy-27" target="p1Gjewepy9sjovdagzMy-31" edge="1">
          <mxGeometry relative="1" as="geometry">
            <mxPoint x="-191" y="870" as="targetPoint" />
          </mxGeometry>
        </mxCell>
        <mxCell id="p1Gjewepy9sjovdagzMy-26" style="edgeStyle=orthogonalEdgeStyle;rounded=0;orthogonalLoop=1;jettySize=auto;html=1;exitX=0.5;exitY=1;exitDx=0;exitDy=0;exitPerimeter=0;fontSize=16;fontColor=#000000;entryX=0.5;entryY=0;entryDx=0;entryDy=0;" parent="1" source="p1Gjewepy9sjovdagzMy-27" target="p1Gjewepy9sjovdagzMy-32" edge="1">
          <mxGeometry relative="1" as="geometry">
            <mxPoint x="40" y="1038" as="targetPoint" />
          </mxGeometry>
        </mxCell>
        <mxCell id="p1Gjewepy9sjovdagzMy-27" value="At current time,&lt;br&gt;if Counter ==0" style="strokeWidth=2;html=1;shape=mxgraph.flowchart.decision;whiteSpace=wrap;fontSize=16;fontColor=#000000;" parent="1" vertex="1">
          <mxGeometry x="-45.08000000000004" y="786" width="170" height="167" as="geometry" />
        </mxCell>
        <mxCell id="p1Gjewepy9sjovdagzMy-28" value="yes" style="text;html=1;align=center;verticalAlign=middle;resizable=0;points=[];autosize=1;strokeColor=none;fillColor=none;fontSize=16;fontColor=#000000;" parent="1" vertex="1">
          <mxGeometry x="-119" y="837" width="43" height="31" as="geometry" />
        </mxCell>
        <mxCell id="p1Gjewepy9sjovdagzMy-29" value="No" style="text;html=1;align=center;verticalAlign=middle;resizable=0;points=[];autosize=1;strokeColor=none;fillColor=none;fontSize=16;fontColor=#000000;" parent="1" vertex="1">
          <mxGeometry x="-8" y="973" width="38" height="31" as="geometry" />
        </mxCell>
        <mxCell id="p1Gjewepy9sjovdagzMy-31" value="The method calculates required attributes and sets counter to 1" style="rounded=1;whiteSpace=wrap;html=1;fontSize=16;fontColor=#000000;" parent="1" vertex="1">
          <mxGeometry x="-394" y="820.5" width="164" height="98" as="geometry" />
        </mxCell>
        <mxCell id="p1Gjewepy9sjovdagzMy-32" value="The method calculates required attributes and sets counter to 0&lt;br&gt;Note: This steps happens after one observation is made.&amp;nbsp;" style="rounded=1;whiteSpace=wrap;html=1;fontSize=16;fontColor=#000000;" parent="1" vertex="1">
          <mxGeometry x="-71.33000000000004" y="1059" width="222.5" height="186" as="geometry" />
        </mxCell>
        <mxCell id="p1Gjewepy9sjovdagzMy-33" value="when log_occulterResults is called, it&amp;nbsp; corresponds to counter = 0 in that method and stores it in the corresponding keyword" style="text;html=1;strokeColor=none;fillColor=none;align=center;verticalAlign=middle;whiteSpace=wrap;rounded=0;fontSize=16;fontColor=#000000;" parent="1" vertex="1">
          <mxGeometry x="-456" y="1128" width="367" height="30" as="geometry" />
        </mxCell>
        <mxCell id="p1Gjewepy9sjovdagzMy-35" value="&lt;font style=&quot;font-size: 18px;&quot;&gt;Instantiates&amp;nbsp;&lt;/font&gt;" style="text;html=1;align=center;verticalAlign=middle;resizable=0;points=[];autosize=1;strokeColor=none;fillColor=none;" parent="1" vertex="1">
          <mxGeometry x="313" y="478.92" width="115" height="34" as="geometry" />
        </mxCell>
        <mxCell id="b8iZS6fvLWdxyXqhisRJ-25" value="" style="edgeStyle=orthogonalEdgeStyle;rounded=0;orthogonalLoop=1;jettySize=auto;html=1;entryX=0;entryY=0.5;entryDx=0;entryDy=0;" parent="1" source="p1Gjewepy9sjovdagzMy-40" target="b8iZS6fvLWdxyXqhisRJ-17" edge="1">
          <mxGeometry relative="1" as="geometry">
            <mxPoint x="831.0105483028719" y="1758.1999999999998" as="targetPoint" />
          </mxGeometry>
        </mxCell>
        <mxCell id="b8iZS6fvLWdxyXqhisRJ-30" value="&lt;font style=&quot;font-size: 18px;&quot;&gt;Pass&lt;/font&gt;" style="edgeLabel;html=1;align=center;verticalAlign=middle;resizable=0;points=[];" parent="b8iZS6fvLWdxyXqhisRJ-25" vertex="1" connectable="0">
          <mxGeometry x="-0.1941" y="1" relative="1" as="geometry">
            <mxPoint as="offset" />
          </mxGeometry>
        </mxCell>
        <mxCell id="b8iZS6fvLWdxyXqhisRJ-40" style="edgeStyle=orthogonalEdgeStyle;rounded=0;orthogonalLoop=1;jettySize=auto;html=1;entryX=0.5;entryY=0;entryDx=0;entryDy=0;" parent="1" source="p1Gjewepy9sjovdagzMy-40" target="b8iZS6fvLWdxyXqhisRJ-41" edge="1">
          <mxGeometry relative="1" as="geometry">
            <mxPoint x="663.2500000000005" y="1879.6153846153843" as="targetPoint" />
          </mxGeometry>
        </mxCell>
        <mxCell id="p1Gjewepy9sjovdagzMy-40" value="if count_1 = 1" style="rhombus;whiteSpace=wrap;html=1;fontSize=18;" parent="1" vertex="1">
          <mxGeometry x="596" y="1695.69" width="134.5" height="125" as="geometry" />
        </mxCell>
        <mxCell id="p1Gjewepy9sjovdagzMy-44" value="yes" style="text;html=1;align=center;verticalAlign=middle;resizable=0;points=[];autosize=1;strokeColor=none;fillColor=none;fontSize=18;" parent="1" vertex="1">
          <mxGeometry x="591" y="1839.75" width="46" height="34" as="geometry" />
        </mxCell>
        <mxCell id="p1Gjewepy9sjovdagzMy-51" style="edgeStyle=orthogonalEdgeStyle;rounded=0;orthogonalLoop=1;jettySize=auto;html=1;fontSize=18;" parent="1" source="p1Gjewepy9sjovdagzMy-50" target="p1Gjewepy9sjovdagzMy-52" edge="1">
          <mxGeometry relative="1" as="geometry">
            <mxPoint x="646" y="879" as="targetPoint" />
          </mxGeometry>
        </mxCell>
        <mxCell id="p1Gjewepy9sjovdagzMy-50" value="filter out sInds where intTime&amp;gt; cutoff" style="rounded=1;whiteSpace=wrap;html=1;fontSize=18;" parent="1" vertex="1">
          <mxGeometry x="505" y="624" width="282" height="98" as="geometry" />
        </mxCell>
        <mxCell id="p1Gjewepy9sjovdagzMy-54" value="" style="edgeStyle=orthogonalEdgeStyle;rounded=0;orthogonalLoop=1;jettySize=auto;html=1;fontSize=18;" parent="1" source="p1Gjewepy9sjovdagzMy-52" target="p1Gjewepy9sjovdagzMy-53" edge="1">
          <mxGeometry relative="1" as="geometry" />
        </mxCell>
        <mxCell id="p1Gjewepy9sjovdagzMy-52" value="Filter out stars previously more -visited" style="rounded=1;whiteSpace=wrap;html=1;fontSize=18;" parent="1" vertex="1">
          <mxGeometry x="519" y="769.5" width="254" height="94" as="geometry" />
        </mxCell>
        <mxCell id="MMasnTg1ly4rQGJmZYbG-5" value="" style="edgeStyle=orthogonalEdgeStyle;rounded=0;orthogonalLoop=1;jettySize=auto;html=1;fontSize=18;" parent="1" source="p1Gjewepy9sjovdagzMy-53" target="MMasnTg1ly4rQGJmZYbG-4" edge="1">
          <mxGeometry relative="1" as="geometry" />
        </mxCell>
        <mxCell id="p1Gjewepy9sjovdagzMy-53" value="Calculate maximum allowed integration time for filtered out targets" style="rounded=1;whiteSpace=wrap;html=1;fontSize=18;" parent="1" vertex="1">
          <mxGeometry x="519" y="919" width="256" height="139" as="geometry" />
        </mxCell>
        <mxCell id="MMasnTg1ly4rQGJmZYbG-3" value="Create empty arrays for:&lt;br&gt;SlewTimes,, SlewTimes_2. intTimes, intTimes = size(sInds)&amp;nbsp;&lt;br&gt;sInds = length of target list&amp;nbsp;&amp;nbsp;" style="text;html=1;align=center;verticalAlign=middle;resizable=0;points=[];autosize=1;strokeColor=none;fillColor=none;fontSize=18;" parent="1" vertex="1">
          <mxGeometry x="1016" y="493.99999999999994" width="495" height="77" as="geometry" />
        </mxCell>
        <mxCell id="MMasnTg1ly4rQGJmZYbG-7" style="edgeStyle=orthogonalEdgeStyle;rounded=0;orthogonalLoop=1;jettySize=auto;html=1;fontSize=18;entryX=1;entryY=0.5;entryDx=0;entryDy=0;" parent="1" source="MMasnTg1ly4rQGJmZYbG-4" target="MMasnTg1ly4rQGJmZYbG-8" edge="1">
          <mxGeometry relative="1" as="geometry">
            <mxPoint x="481.66666666666697" y="1169.0000000000005" as="targetPoint" />
          </mxGeometry>
        </mxCell>
        <mxCell id="MMasnTg1ly4rQGJmZYbG-4" value="filter out intTimes to length of sInds" style="rounded=1;whiteSpace=wrap;html=1;fontSize=18;" parent="1" vertex="1">
          <mxGeometry x="551" y="1100" width="192" height="138" as="geometry" />
        </mxCell>
        <mxCell id="MMasnTg1ly4rQGJmZYbG-46" style="edgeStyle=orthogonalEdgeStyle;rounded=0;orthogonalLoop=1;jettySize=auto;html=1;entryX=0.5;entryY=0;entryDx=0;entryDy=0;fontSize=18;" parent="1" source="MMasnTg1ly4rQGJmZYbG-8" target="MMasnTg1ly4rQGJmZYbG-36" edge="1">
          <mxGeometry relative="1" as="geometry" />
        </mxCell>
        <mxCell id="b8iZS6fvLWdxyXqhisRJ-16" style="edgeStyle=orthogonalEdgeStyle;rounded=0;orthogonalLoop=1;jettySize=auto;html=1;" parent="1" source="MMasnTg1ly4rQGJmZYbG-8" edge="1">
          <mxGeometry relative="1" as="geometry">
            <mxPoint x="273.25" y="1237.5" as="targetPoint" />
          </mxGeometry>
        </mxCell>
        <mxCell id="MMasnTg1ly4rQGJmZYbG-8" value="if maxintTime&amp;lt;=0&lt;br&gt;" style="rhombus;whiteSpace=wrap;html=1;fontSize=18;" parent="1" vertex="1">
          <mxGeometry x="293" y="1074" width="187" height="190" as="geometry" />
        </mxCell>
        <mxCell id="MMasnTg1ly4rQGJmZYbG-10" value="Yes" style="text;html=1;align=center;verticalAlign=middle;resizable=0;points=[];autosize=1;strokeColor=none;fillColor=none;fontSize=18;" parent="1" vertex="1">
          <mxGeometry x="215" y="1190" width="47" height="34" as="geometry" />
        </mxCell>
        <mxCell id="MMasnTg1ly4rQGJmZYbG-14" value="sInd = [ ]" style="text;html=1;align=center;verticalAlign=middle;resizable=0;points=[];autosize=1;strokeColor=none;fillColor=none;fontSize=18;" parent="1" vertex="1">
          <mxGeometry x="231" y="1245" width="88" height="34" as="geometry" />
        </mxCell>
        <mxCell id="MMasnTg1ly4rQGJmZYbG-27" style="edgeStyle=orthogonalEdgeStyle;rounded=0;orthogonalLoop=1;jettySize=auto;html=1;fontSize=18;entryX=0;entryY=0.5;entryDx=0;entryDy=0;" parent="1" source="MMasnTg1ly4rQGJmZYbG-26" target="MMasnTg1ly4rQGJmZYbG-52" edge="1">
          <mxGeometry relative="1" as="geometry">
            <mxPoint x="1865" y="1758" as="targetPoint" />
          </mxGeometry>
        </mxCell>
        <mxCell id="MMasnTg1ly4rQGJmZYbG-31" style="edgeStyle=orthogonalEdgeStyle;rounded=0;orthogonalLoop=1;jettySize=auto;html=1;fontSize=18;entryX=0;entryY=0.5;entryDx=0;entryDy=0;entryPerimeter=0;" parent="1" source="MMasnTg1ly4rQGJmZYbG-26" target="b8iZS6fvLWdxyXqhisRJ-125" edge="1">
          <mxGeometry relative="1" as="geometry">
            <mxPoint x="1695.500000000001" y="2030" as="targetPoint" />
            <Array as="points">
              <mxPoint x="1578" y="2046" />
              <mxPoint x="3072" y="2046" />
            </Array>
          </mxGeometry>
        </mxCell>
        <mxCell id="MMasnTg1ly4rQGJmZYbG-26" value="if old_sInd is None&lt;br&gt;&lt;b&gt;AND&lt;/b&gt;&lt;br&gt;self.counter_2 is None" style="rhombus;whiteSpace=wrap;html=1;fontSize=18;" parent="1" vertex="1">
          <mxGeometry x="1460" y="1661.44" width="237" height="193.12" as="geometry" />
        </mxCell>
        <mxCell id="MMasnTg1ly4rQGJmZYbG-28" value="No" style="text;html=1;align=center;verticalAlign=middle;resizable=0;points=[];autosize=1;strokeColor=none;fillColor=none;fontSize=18;" parent="1" vertex="1">
          <mxGeometry x="1761" y="1710.75" width="41" height="34" as="geometry" />
        </mxCell>
        <mxCell id="MMasnTg1ly4rQGJmZYbG-32" value="Yes" style="text;html=1;align=center;verticalAlign=middle;resizable=0;points=[];autosize=1;strokeColor=none;fillColor=none;fontSize=18;" parent="1" vertex="1">
          <mxGeometry x="1587" y="1914" width="47" height="34" as="geometry" />
        </mxCell>
        <mxCell id="MMasnTg1ly4rQGJmZYbG-33" value="No" style="text;html=1;align=center;verticalAlign=middle;resizable=0;points=[];autosize=1;strokeColor=none;fillColor=none;fontSize=18;" parent="1" vertex="1">
          <mxGeometry x="417" y="1291" width="41" height="34" as="geometry" />
        </mxCell>
        <mxCell id="MMasnTg1ly4rQGJmZYbG-47" value="" style="edgeStyle=orthogonalEdgeStyle;rounded=0;orthogonalLoop=1;jettySize=auto;html=1;fontSize=18;" parent="1" source="MMasnTg1ly4rQGJmZYbG-36" target="MMasnTg1ly4rQGJmZYbG-41" edge="1">
          <mxGeometry relative="1" as="geometry" />
        </mxCell>
        <mxCell id="MMasnTg1ly4rQGJmZYbG-36" value="Compute completeness values at currentTime" style="rounded=1;whiteSpace=wrap;html=1;fontSize=18;" parent="1" vertex="1">
          <mxGeometry x="231" y="1338" width="309" height="48" as="geometry" />
        </mxCell>
        <mxCell id="b8iZS6fvLWdxyXqhisRJ-9" value="" style="edgeStyle=orthogonalEdgeStyle;rounded=0;orthogonalLoop=1;jettySize=auto;html=1;" parent="1" source="MMasnTg1ly4rQGJmZYbG-41" target="b8iZS6fvLWdxyXqhisRJ-6" edge="1">
          <mxGeometry relative="1" as="geometry" />
        </mxCell>
        <mxCell id="MMasnTg1ly4rQGJmZYbG-41" value="Create a sq matrix with size of sInds, each element being sum of comp values" style="rounded=1;whiteSpace=wrap;html=1;fontSize=18;" parent="1" vertex="1">
          <mxGeometry x="156.5" y="1433" width="460" height="74" as="geometry" />
        </mxCell>
        <mxCell id="MMasnTg1ly4rQGJmZYbG-50" value="This condition will be only tru&amp;nbsp; for first observation,&lt;br style=&quot;border-color: var(--border-color);&quot;&gt;&lt;span style=&quot;&quot;&gt;when old_sInd = None or&amp;nbsp;&lt;/span&gt;&lt;b style=&quot;border-color: var(--border-color);&quot;&gt;second&lt;/b&gt;&lt;span style=&quot;&quot;&gt;&amp;nbsp;target selection(preselected) when counter_2 = None&lt;/span&gt;" style="rounded=1;whiteSpace=wrap;html=1;fontSize=18;fillColor=#f8cecc;strokeColor=#b85450;" parent="1" vertex="1">
          <mxGeometry x="1605" y="1441" width="420" height="155" as="geometry" />
        </mxCell>
        <mxCell id="MMasnTg1ly4rQGJmZYbG-53" style="edgeStyle=orthogonalEdgeStyle;rounded=0;orthogonalLoop=1;jettySize=auto;html=1;fontSize=18;" parent="1" source="MMasnTg1ly4rQGJmZYbG-52" edge="1">
          <mxGeometry relative="1" as="geometry">
            <mxPoint x="1984" y="1965.3333333333335" as="targetPoint" />
          </mxGeometry>
        </mxCell>
        <mxCell id="MMasnTg1ly4rQGJmZYbG-57" style="edgeStyle=orthogonalEdgeStyle;rounded=0;orthogonalLoop=1;jettySize=auto;html=1;fontSize=18;entryX=0;entryY=0.5;entryDx=0;entryDy=0;" parent="1" source="MMasnTg1ly4rQGJmZYbG-52" target="MMasnTg1ly4rQGJmZYbG-59" edge="1">
          <mxGeometry relative="1" as="geometry">
            <mxPoint x="2199.666666666667" y="1758" as="targetPoint" />
          </mxGeometry>
        </mxCell>
        <mxCell id="MMasnTg1ly4rQGJmZYbG-52" value="if self.count_1 =0" style="rhombus;whiteSpace=wrap;html=1;fontSize=18;" parent="1" vertex="1">
          <mxGeometry x="1898" y="1674.25" width="172" height="167.5" as="geometry" />
        </mxCell>
        <mxCell id="MMasnTg1ly4rQGJmZYbG-54" value="No" style="text;html=1;align=center;verticalAlign=middle;resizable=0;points=[];autosize=1;strokeColor=none;fillColor=none;fontSize=18;" parent="1" vertex="1">
          <mxGeometry x="1993" y="1880" width="41" height="34" as="geometry" />
        </mxCell>
        <mxCell id="MMasnTg1ly4rQGJmZYbG-55" value="Pass" style="text;html=1;align=center;verticalAlign=middle;resizable=0;points=[];autosize=1;strokeColor=none;fillColor=none;fontSize=18;" parent="1" vertex="1">
          <mxGeometry x="1955" y="1975" width="58" height="34" as="geometry" />
        </mxCell>
        <mxCell id="MMasnTg1ly4rQGJmZYbG-58" value="yes" style="text;html=1;align=center;verticalAlign=middle;resizable=0;points=[];autosize=1;strokeColor=none;fillColor=none;fontSize=18;" parent="1" vertex="1">
          <mxGeometry x="2105" y="1714" width="46" height="34" as="geometry" />
        </mxCell>
        <mxCell id="MMasnTg1ly4rQGJmZYbG-60" style="edgeStyle=orthogonalEdgeStyle;rounded=0;orthogonalLoop=1;jettySize=auto;html=1;fontSize=18;" parent="1" source="MMasnTg1ly4rQGJmZYbG-59" edge="1">
          <mxGeometry relative="1" as="geometry">
            <mxPoint x="2614.142857142857" y="1758" as="targetPoint" />
          </mxGeometry>
        </mxCell>
        <mxCell id="MMasnTg1ly4rQGJmZYbG-59" value="sInd = self.counter_2&amp;nbsp;&lt;br&gt;index all related parameters&lt;br&gt;DRM = log_ results&lt;br&gt;&lt;b&gt;self.count_1 = 1&lt;/b&gt;" style="rounded=1;whiteSpace=wrap;html=1;fontSize=18;" parent="1" vertex="1">
          <mxGeometry x="2193" y="1714" width="342" height="88" as="geometry" />
        </mxCell>
        <mxCell id="MMasnTg1ly4rQGJmZYbG-61" value="&lt;b&gt;Return DRM, sInd,intTime,waitTime&lt;/b&gt;" style="text;html=1;align=center;verticalAlign=middle;resizable=0;points=[];autosize=1;strokeColor=none;fillColor=none;fontSize=18;" parent="1" vertex="1">
          <mxGeometry x="2637" y="1741" width="319" height="34" as="geometry" />
        </mxCell>
        <mxCell id="b8iZS6fvLWdxyXqhisRJ-11" style="edgeStyle=orthogonalEdgeStyle;rounded=0;orthogonalLoop=1;jettySize=auto;html=1;jumpSize=18;" parent="1" source="b8iZS6fvLWdxyXqhisRJ-6" target="p1Gjewepy9sjovdagzMy-40" edge="1">
          <mxGeometry relative="1" as="geometry" />
        </mxCell>
        <mxCell id="b8iZS6fvLWdxyXqhisRJ-12" value="&lt;font style=&quot;font-size: 18px;&quot;&gt;pass&lt;/font&gt;" style="edgeLabel;html=1;align=center;verticalAlign=middle;resizable=0;points=[];" parent="b8iZS6fvLWdxyXqhisRJ-11" vertex="1" connectable="0">
          <mxGeometry x="-0.1199" relative="1" as="geometry">
            <mxPoint x="17" as="offset" />
          </mxGeometry>
        </mxCell>
        <mxCell id="b8iZS6fvLWdxyXqhisRJ-13" style="edgeStyle=orthogonalEdgeStyle;rounded=0;orthogonalLoop=1;jettySize=auto;html=1;exitX=0.5;exitY=1;exitDx=0;exitDy=0;entryX=0.5;entryY=0;entryDx=0;entryDy=0;" parent="1" source="b8iZS6fvLWdxyXqhisRJ-6" edge="1">
          <mxGeometry relative="1" as="geometry">
            <mxPoint x="385.5" y="1938" as="targetPoint" />
          </mxGeometry>
        </mxCell>
        <mxCell id="b8iZS6fvLWdxyXqhisRJ-6" value="if have occulter is true and count_1 ==1" style="rhombus;whiteSpace=wrap;html=1;fontSize=18;" parent="1" vertex="1">
          <mxGeometry x="284.5" y="1662.44" width="202" height="191.5" as="geometry" />
        </mxCell>
        <mxCell id="b8iZS6fvLWdxyXqhisRJ-7" value="No" style="text;html=1;align=center;verticalAlign=middle;resizable=0;points=[];autosize=1;strokeColor=none;fillColor=none;fontSize=18;" parent="1" vertex="1">
          <mxGeometry x="489" y="1724.75" width="41" height="34" as="geometry" />
        </mxCell>
        <mxCell id="b8iZS6fvLWdxyXqhisRJ-14" value="&lt;font style=&quot;font-size: 18px;&quot;&gt;Yes&lt;/font&gt;" style="text;html=1;align=center;verticalAlign=middle;resizable=0;points=[];autosize=1;strokeColor=none;fillColor=none;" parent="1" vertex="1">
          <mxGeometry x="333" y="1857.75" width="47" height="34" as="geometry" />
        </mxCell>
        <mxCell id="b8iZS6fvLWdxyXqhisRJ-48" style="edgeStyle=orthogonalEdgeStyle;rounded=0;orthogonalLoop=1;jettySize=auto;html=1;" parent="1" source="b8iZS6fvLWdxyXqhisRJ-17" target="b8iZS6fvLWdxyXqhisRJ-44" edge="1">
          <mxGeometry relative="1" as="geometry" />
        </mxCell>
        <mxCell id="b8iZS6fvLWdxyXqhisRJ-57" value="&lt;font style=&quot;font-size: 18px;&quot;&gt;Pass&lt;/font&gt;" style="edgeLabel;html=1;align=center;verticalAlign=middle;resizable=0;points=[];" parent="b8iZS6fvLWdxyXqhisRJ-48" vertex="1" connectable="0">
          <mxGeometry x="-0.0717" relative="1" as="geometry">
            <mxPoint as="offset" />
          </mxGeometry>
        </mxCell>
        <mxCell id="b8iZS6fvLWdxyXqhisRJ-52" style="edgeStyle=orthogonalEdgeStyle;rounded=0;orthogonalLoop=1;jettySize=auto;html=1;entryX=0.5;entryY=0;entryDx=0;entryDy=0;" parent="1" source="b8iZS6fvLWdxyXqhisRJ-17" target="b8iZS6fvLWdxyXqhisRJ-53" edge="1">
          <mxGeometry relative="1" as="geometry">
            <mxPoint x="909.2500000000005" y="1902.7826086956525" as="targetPoint" />
          </mxGeometry>
        </mxCell>
        <mxCell id="b8iZS6fvLWdxyXqhisRJ-17" value="if count_1 = 1" style="rhombus;whiteSpace=wrap;html=1;fontSize=18;" parent="1" vertex="1">
          <mxGeometry x="865" y="1695.69" width="134.5" height="125" as="geometry" />
        </mxCell>
        <mxCell id="b8iZS6fvLWdxyXqhisRJ-37" value="&lt;span style=&quot;color: rgb(0, 0, 0); font-family: Helvetica; font-size: 18px; font-style: normal; font-variant-ligatures: normal; font-variant-caps: normal; font-weight: 400; letter-spacing: normal; orphans: 2; text-align: center; text-indent: 0px; text-transform: none; widows: 2; word-spacing: 0px; -webkit-text-stroke-width: 0px; background-color: rgb(255, 255, 255); text-decoration-thickness: initial; text-decoration-style: initial; text-decoration-color: initial; float: none; display: inline !important;&quot;&gt;No&lt;/span&gt;" style="text;whiteSpace=wrap;html=1;" parent="1" vertex="1">
          <mxGeometry x="736.0042857142857" y="1715.9985714285715" width="51" height="44" as="geometry" />
        </mxCell>
        <mxCell id="b8iZS6fvLWdxyXqhisRJ-41" value="Reduce slewTime array to sInds" style="rounded=1;whiteSpace=wrap;html=1;" parent="1" vertex="1">
          <mxGeometry x="603" y="1901" width="120" height="60" as="geometry" />
        </mxCell>
        <mxCell id="b8iZS6fvLWdxyXqhisRJ-50" style="edgeStyle=orthogonalEdgeStyle;rounded=0;orthogonalLoop=1;jettySize=auto;html=1;" parent="1" source="b8iZS6fvLWdxyXqhisRJ-44" target="MMasnTg1ly4rQGJmZYbG-26" edge="1">
          <mxGeometry relative="1" as="geometry" />
        </mxCell>
        <mxCell id="b8iZS6fvLWdxyXqhisRJ-51" value="&lt;font style=&quot;font-size: 18px;&quot;&gt;Pass&lt;/font&gt;" style="edgeLabel;html=1;align=center;verticalAlign=middle;resizable=0;points=[];" parent="b8iZS6fvLWdxyXqhisRJ-50" vertex="1" connectable="0">
          <mxGeometry x="0.1563" y="-2" relative="1" as="geometry">
            <mxPoint as="offset" />
          </mxGeometry>
        </mxCell>
        <mxCell id="b8iZS6fvLWdxyXqhisRJ-54" style="edgeStyle=orthogonalEdgeStyle;rounded=0;orthogonalLoop=1;jettySize=auto;html=1;entryX=0.5;entryY=0;entryDx=0;entryDy=0;" parent="1" source="b8iZS6fvLWdxyXqhisRJ-44" target="b8iZS6fvLWdxyXqhisRJ-117" edge="1">
          <mxGeometry relative="1" as="geometry">
            <mxPoint x="1189" y="1924" as="targetPoint" />
          </mxGeometry>
        </mxCell>
        <mxCell id="b8iZS6fvLWdxyXqhisRJ-44" value="if have occulter is true and count_1 =1" style="rhombus;whiteSpace=wrap;html=1;fontSize=18;" parent="1" vertex="1">
          <mxGeometry x="1088" y="1663.06" width="202" height="191.5" as="geometry" />
        </mxCell>
        <mxCell id="b8iZS6fvLWdxyXqhisRJ-45" value="No" style="text;html=1;align=center;verticalAlign=middle;resizable=0;points=[];autosize=1;strokeColor=none;fillColor=none;fontSize=18;" parent="1" vertex="1">
          <mxGeometry x="1298" y="1724.75" width="41" height="34" as="geometry" />
        </mxCell>
        <mxCell id="b8iZS6fvLWdxyXqhisRJ-46" value="&lt;font style=&quot;font-size: 18px;&quot;&gt;Yes&lt;/font&gt;" style="text;html=1;align=center;verticalAlign=middle;resizable=0;points=[];autosize=1;strokeColor=none;fillColor=none;" parent="1" vertex="1">
          <mxGeometry x="1135" y="1867" width="47" height="34" as="geometry" />
        </mxCell>
        <mxCell id="b8iZS6fvLWdxyXqhisRJ-111" style="edgeStyle=orthogonalEdgeStyle;rounded=0;orthogonalLoop=1;jettySize=auto;html=1;entryX=0.5;entryY=0;entryDx=0;entryDy=0;" parent="1" source="b8iZS6fvLWdxyXqhisRJ-53" target="b8iZS6fvLWdxyXqhisRJ-110" edge="1">
          <mxGeometry relative="1" as="geometry" />
        </mxCell>
        <mxCell id="b8iZS6fvLWdxyXqhisRJ-53" value="sInd, waitTime = Choose_next_target" style="rounded=1;whiteSpace=wrap;html=1;" parent="1" vertex="1">
          <mxGeometry x="834.13" y="1915" width="196.25" height="60" as="geometry" />
        </mxCell>
        <mxCell id="b8iZS6fvLWdxyXqhisRJ-56" value="&lt;font style=&quot;font-size: 18px;&quot;&gt;Yes&lt;/font&gt;" style="text;html=1;align=center;verticalAlign=middle;resizable=0;points=[];autosize=1;strokeColor=none;fillColor=none;" parent="1" vertex="1">
          <mxGeometry x="865" y="1839.75" width="47" height="34" as="geometry" />
        </mxCell>
        <mxCell id="b8iZS6fvLWdxyXqhisRJ-58" value="Compute angular separation, &lt;br&gt;slewTimes from last target (respectively)&amp;nbsp;&lt;br&gt;for both StarShades&lt;br&gt;sd, sd_2, slewTimes, slewTimes_2&lt;br&gt;self.slewTimes_s = slewTimes_2" style="text;html=1;align=center;verticalAlign=middle;resizable=0;points=[];autosize=1;strokeColor=none;fillColor=none;" parent="1" vertex="1">
          <mxGeometry x="262" y="1935" width="236" height="84" as="geometry" />
        </mxCell>
        <mxCell id="b8iZS6fvLWdxyXqhisRJ-59" value="&lt;b&gt;This flow is for a greedy scheduler&lt;/b&gt;" style="text;html=1;strokeColor=none;fillColor=none;align=center;verticalAlign=middle;whiteSpace=wrap;rounded=0;fontSize=16;fontColor=#000000;" parent="1" vertex="1">
          <mxGeometry x="1187.5" y="2585" width="345" height="30" as="geometry" />
        </mxCell>
        <mxCell id="b8iZS6fvLWdxyXqhisRJ-60" style="edgeStyle=orthogonalEdgeStyle;rounded=0;orthogonalLoop=1;jettySize=auto;html=1;fontSize=16;fontColor=#000000;" parent="1" source="b8iZS6fvLWdxyXqhisRJ-61" target="b8iZS6fvLWdxyXqhisRJ-65" edge="1">
          <mxGeometry relative="1" as="geometry">
            <mxPoint x="1093.5" y="2865.6923076923076" as="targetPoint" />
          </mxGeometry>
        </mxCell>
        <mxCell id="b8iZS6fvLWdxyXqhisRJ-61" value="calculate start times for 2 observations:&lt;br&gt;Start time for first Target = current time + slewTime&lt;br&gt;Start time for second Target = current time + slewTime&amp;nbsp;&lt;br&gt;" style="text;html=1;align=center;verticalAlign=middle;resizable=0;points=[];autosize=1;strokeColor=none;fillColor=none;fontSize=16;fontColor=#000000;" parent="1" vertex="1">
          <mxGeometry x="890" y="2702" width="407" height="70" as="geometry" />
        </mxCell>
        <mxCell id="b8iZS6fvLWdxyXqhisRJ-62" value="&lt;span style=&quot;color: rgb(0, 0, 0); font-family: Helvetica; font-size: 16px; font-style: normal; font-variant-ligatures: normal; font-variant-caps: normal; font-weight: 400; letter-spacing: normal; orphans: 2; text-align: center; text-indent: 0px; text-transform: none; widows: 2; word-spacing: 0px; -webkit-text-stroke-width: 0px; background-color: rgb(255, 255, 255); text-decoration-thickness: initial; text-decoration-style: initial; text-decoration-color: initial; float: none; display: inline !important;&quot;&gt;Note: This is not the most accurate method as start time for second target will also include integration time for the first target&lt;br&gt;But it is required to calculate integration time for both targets for checking keepout condition&lt;br&gt;&lt;/span&gt;" style="text;whiteSpace=wrap;html=1;fontSize=16;fontColor=#000000;" parent="1" vertex="1">
          <mxGeometry x="1484.0038461538456" y="2679.000769230769" width="550" height="60" as="geometry" />
        </mxCell>
        <mxCell id="b8iZS6fvLWdxyXqhisRJ-63" value="" style="curved=1;endArrow=classic;html=1;rounded=0;fontSize=16;fontColor=#000000;entryX=0;entryY=0.5;entryDx=0;entryDy=0;" parent="1" source="b8iZS6fvLWdxyXqhisRJ-61" target="b8iZS6fvLWdxyXqhisRJ-62" edge="1">
          <mxGeometry width="50" height="50" relative="1" as="geometry">
            <mxPoint x="1343" y="2749" as="sourcePoint" />
            <mxPoint x="1393" y="2699" as="targetPoint" />
            <Array as="points">
              <mxPoint x="1393" y="2749" />
              <mxPoint x="1343" y="2699" />
            </Array>
          </mxGeometry>
        </mxCell>
        <mxCell id="b8iZS6fvLWdxyXqhisRJ-64" style="edgeStyle=orthogonalEdgeStyle;rounded=0;orthogonalLoop=1;jettySize=auto;html=1;entryX=0.5;entryY=0;entryDx=0;entryDy=0;fontSize=16;fontColor=#000000;" parent="1" source="b8iZS6fvLWdxyXqhisRJ-65" target="b8iZS6fvLWdxyXqhisRJ-66" edge="1">
          <mxGeometry relative="1" as="geometry" />
        </mxCell>
        <mxCell id="b8iZS6fvLWdxyXqhisRJ-65" value="Calculate integration time for both set of Target" style="text;html=1;align=center;verticalAlign=middle;resizable=0;points=[];autosize=1;strokeColor=none;fillColor=none;fontSize=16;fontColor=#000000;" parent="1" vertex="1">
          <mxGeometry x="919" y="2825" width="349" height="31" as="geometry" />
        </mxCell>
        <mxCell id="b8iZS6fvLWdxyXqhisRJ-66" value="&lt;ul&gt;&lt;li&gt;Create Array of sInds&lt;/li&gt;&lt;li&gt;Create a square matrix where each element is sum of comp values of corresponding elements&lt;/li&gt;&lt;li&gt;Fill the diagonal with 1e9 (arbitrary high value)&amp;nbsp;&lt;/li&gt;&lt;li&gt;fill the upper triangular matrix with 0&lt;/li&gt;&lt;/ul&gt;" style="rounded=1;whiteSpace=wrap;html=1;fontSize=16;fontColor=#000000;" parent="1" vertex="1">
          <mxGeometry x="863.6300000000001" y="2894" width="459.75" height="110" as="geometry" />
        </mxCell>
        <mxCell id="b8iZS6fvLWdxyXqhisRJ-67" style="edgeStyle=orthogonalEdgeStyle;rounded=0;orthogonalLoop=1;jettySize=auto;html=1;fontSize=16;fontColor=#000000;" parent="1" source="b8iZS6fvLWdxyXqhisRJ-68" target="b8iZS6fvLWdxyXqhisRJ-71" edge="1">
          <mxGeometry relative="1" as="geometry" />
        </mxCell>
        <mxCell id="b8iZS6fvLWdxyXqhisRJ-68" value="While ko = 0" style="shape=parallelogram;html=1;strokeWidth=2;perimeter=parallelogramPerimeter;whiteSpace=wrap;rounded=1;arcSize=12;size=0.23;fontSize=16;fontColor=#000000;" parent="1" vertex="1">
          <mxGeometry x="994.1300000000001" y="3210" width="151" height="131" as="geometry" />
        </mxCell>
        <mxCell id="b8iZS6fvLWdxyXqhisRJ-69" style="edgeStyle=orthogonalEdgeStyle;rounded=0;orthogonalLoop=1;jettySize=auto;html=1;fontSize=16;fontColor=#000000;" parent="1" source="b8iZS6fvLWdxyXqhisRJ-71" target="b8iZS6fvLWdxyXqhisRJ-72" edge="1">
          <mxGeometry relative="1" as="geometry">
            <mxPoint x="943.0023529411765" y="3437" as="targetPoint" />
          </mxGeometry>
        </mxCell>
        <mxCell id="b8iZS6fvLWdxyXqhisRJ-70" style="edgeStyle=orthogonalEdgeStyle;rounded=0;orthogonalLoop=1;jettySize=auto;html=1;fontSize=16;fontColor=#000000;" parent="1" source="b8iZS6fvLWdxyXqhisRJ-71" target="b8iZS6fvLWdxyXqhisRJ-74" edge="1">
          <mxGeometry relative="1" as="geometry">
            <mxPoint x="1070.12" y="3590" as="targetPoint" />
          </mxGeometry>
        </mxCell>
        <mxCell id="b8iZS6fvLWdxyXqhisRJ-71" value="Select the index with max value." style="rounded=1;whiteSpace=wrap;html=1;absoluteArcSize=1;arcSize=14;strokeWidth=2;fontSize=16;fontColor=#000000;" parent="1" vertex="1">
          <mxGeometry x="1019.6199999999999" y="3387" width="100" height="100" as="geometry" />
        </mxCell>
        <mxCell id="b8iZS6fvLWdxyXqhisRJ-72" value="&lt;b&gt;First target, second Target&lt;/b&gt;" style="text;html=1;align=center;verticalAlign=middle;resizable=0;points=[];autosize=1;strokeColor=none;fillColor=none;fontSize=16;fontColor=#000000;" parent="1" vertex="1">
          <mxGeometry x="661.1199999999999" y="3421.5" width="219" height="31" as="geometry" />
        </mxCell>
        <mxCell id="b8iZS6fvLWdxyXqhisRJ-73" style="edgeStyle=orthogonalEdgeStyle;rounded=0;orthogonalLoop=1;jettySize=auto;html=1;fontSize=16;fontColor=#000000;entryX=0.5;entryY=0;entryDx=0;entryDy=0;entryPerimeter=0;" parent="1" source="b8iZS6fvLWdxyXqhisRJ-74" target="b8iZS6fvLWdxyXqhisRJ-78" edge="1">
          <mxGeometry relative="1" as="geometry">
            <mxPoint x="1069.63" y="3851.142857142858" as="targetPoint" />
          </mxGeometry>
        </mxCell>
        <mxCell id="b8iZS6fvLWdxyXqhisRJ-74" value="Index koMap in the following method:&lt;br&gt;Product of element in--- row : First_Target, column = Current time : current time+slewTime[first target] + intTime[first Target]&lt;br&gt;+&lt;br&gt;Product of elements in----Row: second Target, Columns = Current time : Current time + slewTime[first target] + intTime[first Target] + intTime_2[secondTarget] + self.SlewTimes_2[second target]&amp;nbsp;" style="rounded=1;whiteSpace=wrap;html=1;absoluteArcSize=1;arcSize=14;strokeWidth=2;fontSize=16;fontColor=#000000;" parent="1" vertex="1">
          <mxGeometry x="361" y="3546" width="1417.26" height="146" as="geometry" />
        </mxCell>
        <mxCell id="b8iZS6fvLWdxyXqhisRJ-75" value="index is:" style="text;html=1;align=center;verticalAlign=middle;resizable=0;points=[];autosize=1;strokeColor=none;fillColor=none;fontSize=16;fontColor=#000000;" parent="1" vertex="1">
          <mxGeometry x="934.1199999999999" y="3404" width="77" height="31" as="geometry" />
        </mxCell>
        <mxCell id="b8iZS6fvLWdxyXqhisRJ-76" style="edgeStyle=orthogonalEdgeStyle;rounded=0;orthogonalLoop=1;jettySize=auto;html=1;exitX=1;exitY=0.5;exitDx=0;exitDy=0;exitPerimeter=0;fontSize=16;fontColor=#000000;" parent="1" source="b8iZS6fvLWdxyXqhisRJ-78" edge="1">
          <mxGeometry relative="1" as="geometry">
            <mxPoint x="1210.8342857142861" y="3834" as="targetPoint" />
          </mxGeometry>
        </mxCell>
        <mxCell id="b8iZS6fvLWdxyXqhisRJ-77" style="edgeStyle=orthogonalEdgeStyle;rounded=0;orthogonalLoop=1;jettySize=auto;html=1;fontSize=16;fontColor=#000000;" parent="1" source="b8iZS6fvLWdxyXqhisRJ-78" edge="1">
          <mxGeometry relative="1" as="geometry">
            <mxPoint x="1069.63" y="3955.4285714285716" as="targetPoint" />
          </mxGeometry>
        </mxCell>
        <mxCell id="b8iZS6fvLWdxyXqhisRJ-78" value="if ko = 1" style="strokeWidth=2;html=1;shape=mxgraph.flowchart.decision;whiteSpace=wrap;fontSize=16;fontColor=#000000;" parent="1" vertex="1">
          <mxGeometry x="1019.6300000000001" y="3784" width="100" height="100" as="geometry" />
        </mxCell>
        <mxCell id="b8iZS6fvLWdxyXqhisRJ-79" value="No" style="text;html=1;align=center;verticalAlign=middle;resizable=0;points=[];autosize=1;strokeColor=none;fillColor=none;fontSize=16;fontColor=#000000;" parent="1" vertex="1">
          <mxGeometry x="1138.12" y="3798" width="38" height="31" as="geometry" />
        </mxCell>
        <mxCell id="b8iZS6fvLWdxyXqhisRJ-80" style="edgeStyle=orthogonalEdgeStyle;rounded=0;orthogonalLoop=1;jettySize=auto;html=1;entryX=1;entryY=0.5;entryDx=0;entryDy=0;fontSize=16;fontColor=#000000;exitX=0.997;exitY=0.58;exitDx=0;exitDy=0;exitPerimeter=0;" parent="1" source="2xSAy8wzF72pDICXeRzi-8" target="b8iZS6fvLWdxyXqhisRJ-68" edge="1">
          <mxGeometry relative="1" as="geometry">
            <Array as="points">
              <mxPoint x="1925" y="3951" />
              <mxPoint x="1975" y="3952" />
              <mxPoint x="1975" y="3841" />
              <mxPoint x="2002" y="3841" />
              <mxPoint x="2002" y="3276" />
            </Array>
            <mxPoint x="1925" y="3910" as="sourcePoint" />
          </mxGeometry>
        </mxCell>
        <mxCell id="2xSAy8wzF72pDICXeRzi-5" style="edgeStyle=orthogonalEdgeStyle;rounded=0;orthogonalLoop=1;jettySize=auto;html=1;entryX=0;entryY=0.5;entryDx=0;entryDy=0;entryPerimeter=0;" parent="1" source="b8iZS6fvLWdxyXqhisRJ-81" target="2xSAy8wzF72pDICXeRzi-4" edge="1">
          <mxGeometry relative="1" as="geometry" />
        </mxCell>
        <mxCell id="b8iZS6fvLWdxyXqhisRJ-81" value="Set arbitrary low value &lt;br&gt;to the selected index = 0&lt;br&gt;ko = 0" style="text;html=1;align=center;verticalAlign=middle;resizable=0;points=[];autosize=1;strokeColor=none;fillColor=none;fontSize=16;fontColor=#000000;" parent="1" vertex="1">
          <mxGeometry x="1211.12" y="3806" width="192" height="70" as="geometry" />
        </mxCell>
        <mxCell id="b8iZS6fvLWdxyXqhisRJ-82" value="Yes" style="text;html=1;align=center;verticalAlign=middle;resizable=0;points=[];autosize=1;strokeColor=none;fillColor=none;fontSize=16;fontColor=#000000;" parent="1" vertex="1">
          <mxGeometry x="1014.1199999999999" y="3896" width="44" height="31" as="geometry" />
        </mxCell>
        <mxCell id="b8iZS6fvLWdxyXqhisRJ-83" value="sInd = first_target&lt;br&gt;self.secondTarget = second_Target&lt;br&gt;waitTime = slewTime[sInd]" style="text;html=1;align=center;verticalAlign=middle;resizable=0;points=[];autosize=1;strokeColor=none;fillColor=none;fontSize=16;fontColor=#000000;" parent="1" vertex="1">
          <mxGeometry x="936.6199999999999" y="3956" width="267" height="70" as="geometry" />
        </mxCell>
        <mxCell id="b8iZS6fvLWdxyXqhisRJ-84" value="" style="edgeStyle=orthogonalEdgeStyle;rounded=0;orthogonalLoop=1;jettySize=auto;html=1;fontSize=16;fontColor=#000000;" parent="1" source="b8iZS6fvLWdxyXqhisRJ-86" target="b8iZS6fvLWdxyXqhisRJ-68" edge="1">
          <mxGeometry relative="1" as="geometry" />
        </mxCell>
        <mxCell id="b8iZS6fvLWdxyXqhisRJ-85" style="edgeStyle=orthogonalEdgeStyle;rounded=0;orthogonalLoop=1;jettySize=auto;html=1;fontSize=16;fontColor=#000000;" parent="1" source="b8iZS6fvLWdxyXqhisRJ-86" edge="1">
          <mxGeometry relative="1" as="geometry">
            <mxPoint x="259.66666666666697" y="3976" as="targetPoint" />
          </mxGeometry>
        </mxCell>
        <mxCell id="b8iZS6fvLWdxyXqhisRJ-86" value="if self.second_Target is None:" style="strokeWidth=2;html=1;shape=mxgraph.flowchart.decision;whiteSpace=wrap;fontSize=16;fontColor=#000000;" parent="1" vertex="1">
          <mxGeometry x="942.1199999999999" y="3040" width="255" height="134" as="geometry" />
        </mxCell>
        <mxCell id="b8iZS6fvLWdxyXqhisRJ-87" value="Yes" style="text;html=1;align=center;verticalAlign=middle;resizable=0;points=[];autosize=1;strokeColor=none;fillColor=none;fontSize=16;fontColor=#000000;" parent="1" vertex="1">
          <mxGeometry x="1026" y="3169" width="44" height="31" as="geometry" />
        </mxCell>
        <mxCell id="b8iZS6fvLWdxyXqhisRJ-88" value="No" style="text;html=1;align=center;verticalAlign=middle;resizable=0;points=[];autosize=1;strokeColor=none;fillColor=none;fontSize=16;fontColor=#000000;" parent="1" vertex="1">
          <mxGeometry x="730" y="3071" width="38" height="31" as="geometry" />
        </mxCell>
        <mxCell id="b8iZS6fvLWdxyXqhisRJ-89" value="sInd = self.second_target&lt;br&gt;waitTime = self.slewTimes_2[sInd]&lt;br&gt;self.second_Target = None" style="text;html=1;align=center;verticalAlign=middle;resizable=0;points=[];autosize=1;strokeColor=none;fillColor=none;fontSize=16;fontColor=#000000;" parent="1" vertex="1">
          <mxGeometry x="118" y="3970" width="261" height="70" as="geometry" />
        </mxCell>
        <mxCell id="b8iZS6fvLWdxyXqhisRJ-90" value="" style="endArrow=none;html=1;rounded=0;fontSize=16;fontColor=#000000;" parent="1" edge="1">
          <mxGeometry width="50" height="50" relative="1" as="geometry">
            <mxPoint x="17" y="4178" as="sourcePoint" />
            <mxPoint x="17" y="2650" as="targetPoint" />
          </mxGeometry>
        </mxCell>
        <mxCell id="b8iZS6fvLWdxyXqhisRJ-91" value="" style="endArrow=none;html=1;rounded=0;fontSize=16;fontColor=#000000;" parent="1" edge="1">
          <mxGeometry width="50" height="50" relative="1" as="geometry">
            <mxPoint x="14" y="2655" as="sourcePoint" />
            <mxPoint x="2351" y="2635" as="targetPoint" />
          </mxGeometry>
        </mxCell>
        <mxCell id="b8iZS6fvLWdxyXqhisRJ-92" value="" style="endArrow=none;html=1;rounded=0;fontSize=16;fontColor=#000000;" parent="1" edge="1">
          <mxGeometry width="50" height="50" relative="1" as="geometry">
            <mxPoint x="22" y="4179" as="sourcePoint" />
            <mxPoint x="2377" y="4193" as="targetPoint" />
          </mxGeometry>
        </mxCell>
        <mxCell id="b8iZS6fvLWdxyXqhisRJ-93" value="" style="endArrow=none;html=1;rounded=0;fontSize=16;fontColor=#000000;" parent="1" edge="1">
          <mxGeometry width="50" height="50" relative="1" as="geometry">
            <mxPoint x="2359" y="4186" as="sourcePoint" />
            <mxPoint x="2342" y="2623" as="targetPoint" />
          </mxGeometry>
        </mxCell>
        <mxCell id="b8iZS6fvLWdxyXqhisRJ-94" value="" style="curved=1;endArrow=classic;html=1;rounded=0;fontSize=16;fontColor=#000000;" parent="1" edge="1">
          <mxGeometry width="50" height="50" relative="1" as="geometry">
            <mxPoint x="1566" y="3543" as="sourcePoint" />
            <mxPoint x="1838" y="3136" as="targetPoint" />
            <Array as="points">
              <mxPoint x="1693" y="3431" />
              <mxPoint x="1643" y="3381" />
            </Array>
          </mxGeometry>
        </mxCell>
        <mxCell id="b8iZS6fvLWdxyXqhisRJ-95" value="&lt;div style=&quot;text-align: justify;&quot;&gt;&lt;span style=&quot;background-color: initial;&quot;&gt;The idea behind this sort of indexing is to check if all elements in the koMap are 0&lt;/span&gt;&lt;/div&gt;&lt;div style=&quot;text-align: justify;&quot;&gt;&lt;span style=&quot;background-color: initial;&quot;&gt;for the required time for observation, that&#39;s why we check for rows that have our targets and column for the time block&lt;/span&gt;&lt;/div&gt;&lt;div style=&quot;text-align: justify;&quot;&gt;&lt;span style=&quot;background-color: initial;&quot;&gt;if all elements are 0, the product will be zero for both rows, even if one row product is non zero it will result in&lt;/span&gt;&lt;/div&gt;&lt;div style=&quot;text-align: justify;&quot;&gt;&lt;span style=&quot;background-color: initial;&quot;&gt;non zero value which triggers the loop to run again until observable targets are found&lt;/span&gt;&lt;/div&gt;" style="text;html=1;align=center;verticalAlign=middle;resizable=0;points=[];autosize=1;strokeColor=none;fillColor=none;fontSize=16;fontColor=#000000;" parent="1" vertex="1">
          <mxGeometry x="1496" y="3040" width="848" height="89" as="geometry" />
        </mxCell>
        <mxCell id="b8iZS6fvLWdxyXqhisRJ-101" style="edgeStyle=orthogonalEdgeStyle;rounded=0;orthogonalLoop=1;jettySize=auto;html=1;" parent="1" source="b8iZS6fvLWdxyXqhisRJ-98" edge="1">
          <mxGeometry relative="1" as="geometry">
            <mxPoint x="806.969696969697" y="2214.0000000000005" as="targetPoint" />
          </mxGeometry>
        </mxCell>
        <mxCell id="b8iZS6fvLWdxyXqhisRJ-103" style="edgeStyle=orthogonalEdgeStyle;rounded=0;orthogonalLoop=1;jettySize=auto;html=1;exitX=0.5;exitY=1;exitDx=0;exitDy=0;entryX=0.5;entryY=0;entryDx=0;entryDy=0;" parent="1" source="b8iZS6fvLWdxyXqhisRJ-98" target="b8iZS6fvLWdxyXqhisRJ-105" edge="1">
          <mxGeometry relative="1" as="geometry">
            <mxPoint x="931.2121212121215" y="2301.1818181818185" as="targetPoint" />
          </mxGeometry>
        </mxCell>
        <mxCell id="b8iZS6fvLWdxyXqhisRJ-98" value="if sInd is none and waitTime is Not None" style="rhombus;whiteSpace=wrap;html=1;" parent="1" vertex="1">
          <mxGeometry x="857.38" y="2165" width="147.75" height="98" as="geometry" />
        </mxCell>
        <mxCell id="b8iZS6fvLWdxyXqhisRJ-100" value="&lt;span style=&quot;color: rgb(0, 0, 0); font-family: Helvetica; font-size: 18px; font-style: normal; font-variant-ligatures: normal; font-variant-caps: normal; font-weight: 400; letter-spacing: normal; orphans: 2; text-align: center; text-indent: 0px; text-transform: none; widows: 2; word-spacing: 0px; -webkit-text-stroke-width: 0px; background-color: rgb(255, 255, 255); text-decoration-thickness: initial; text-decoration-style: initial; text-decoration-color: initial; float: none; display: inline !important;&quot;&gt;No&lt;/span&gt;" style="text;whiteSpace=wrap;html=1;" parent="1" vertex="1">
          <mxGeometry x="997.6342857142857" y="1710.7485714285715" width="51" height="44" as="geometry" />
        </mxCell>
        <mxCell id="b8iZS6fvLWdxyXqhisRJ-102" value="Print relevant statement&amp;nbsp;&lt;br&gt;Return DRM, None, None, WaitTime" style="text;html=1;align=center;verticalAlign=middle;resizable=0;points=[];autosize=1;strokeColor=none;fillColor=none;" parent="1" vertex="1">
          <mxGeometry x="593.5" y="2191" width="212" height="41" as="geometry" />
        </mxCell>
        <mxCell id="b8iZS6fvLWdxyXqhisRJ-107" style="edgeStyle=orthogonalEdgeStyle;rounded=0;orthogonalLoop=1;jettySize=auto;html=1;" parent="1" source="b8iZS6fvLWdxyXqhisRJ-105" edge="1">
          <mxGeometry relative="1" as="geometry">
            <mxPoint x="805.757575757576" y="2373.5" as="targetPoint" />
          </mxGeometry>
        </mxCell>
        <mxCell id="b8iZS6fvLWdxyXqhisRJ-105" value="if sInd is Not None and waitTime is None" style="rhombus;whiteSpace=wrap;html=1;" parent="1" vertex="1">
          <mxGeometry x="852.62" y="2301" width="157.25" height="145" as="geometry" />
        </mxCell>
        <mxCell id="b8iZS6fvLWdxyXqhisRJ-106" value="Yes" style="text;html=1;align=center;verticalAlign=middle;resizable=0;points=[];autosize=1;strokeColor=none;fillColor=none;" parent="1" vertex="1">
          <mxGeometry x="810.75" y="2175" width="38" height="26" as="geometry" />
        </mxCell>
        <mxCell id="b8iZS6fvLWdxyXqhisRJ-108" value="Yes" style="text;html=1;align=center;verticalAlign=middle;resizable=0;points=[];autosize=1;strokeColor=none;fillColor=none;" parent="1" vertex="1">
          <mxGeometry x="814.62" y="2344" width="38" height="26" as="geometry" />
        </mxCell>
        <mxCell id="b8iZS6fvLWdxyXqhisRJ-109" value="Print relevant statement&amp;nbsp;&lt;br&gt;Return DRM, None, None, None" style="text;html=1;align=center;verticalAlign=middle;resizable=0;points=[];autosize=1;strokeColor=none;fillColor=none;" parent="1" vertex="1">
          <mxGeometry x="606" y="2349" width="191" height="41" as="geometry" />
        </mxCell>
        <mxCell id="b8iZS6fvLWdxyXqhisRJ-112" style="edgeStyle=orthogonalEdgeStyle;rounded=0;orthogonalLoop=1;jettySize=auto;html=1;" parent="1" source="b8iZS6fvLWdxyXqhisRJ-110" target="b8iZS6fvLWdxyXqhisRJ-98" edge="1">
          <mxGeometry relative="1" as="geometry" />
        </mxCell>
        <mxCell id="b8iZS6fvLWdxyXqhisRJ-114" style="edgeStyle=orthogonalEdgeStyle;rounded=0;orthogonalLoop=1;jettySize=auto;html=1;" parent="1" source="b8iZS6fvLWdxyXqhisRJ-110" edge="1">
          <mxGeometry relative="1" as="geometry">
            <mxPoint x="799.2105263157896" y="2059.5" as="targetPoint" />
          </mxGeometry>
        </mxCell>
        <mxCell id="b8iZS6fvLWdxyXqhisRJ-110" value="if old_sInd is Not None&lt;br&gt;&amp;amp; len(sInd)&amp;gt;0" style="rhombus;whiteSpace=wrap;html=1;" parent="1" vertex="1">
          <mxGeometry x="825" y="2026" width="214.14" height="67" as="geometry" />
        </mxCell>
        <mxCell id="b8iZS6fvLWdxyXqhisRJ-113" value="Yes" style="text;html=1;align=center;verticalAlign=middle;resizable=0;points=[];autosize=1;strokeColor=none;fillColor=none;" parent="1" vertex="1">
          <mxGeometry x="899" y="2115" width="38" height="26" as="geometry" />
        </mxCell>
        <mxCell id="b8iZS6fvLWdxyXqhisRJ-115" value="No" style="text;html=1;align=center;verticalAlign=middle;resizable=0;points=[];autosize=1;strokeColor=none;fillColor=none;" parent="1" vertex="1">
          <mxGeometry x="803" y="2025" width="33" height="26" as="geometry" />
        </mxCell>
        <mxCell id="b8iZS6fvLWdxyXqhisRJ-116" value="Print relevant statement&amp;nbsp;&lt;br&gt;Return DRM, None, None, None" style="text;html=1;align=center;verticalAlign=middle;resizable=0;points=[];autosize=1;strokeColor=none;fillColor=none;" parent="1" vertex="1">
          <mxGeometry x="604" y="2039" width="191" height="41" as="geometry" />
        </mxCell>
        <mxCell id="b8iZS6fvLWdxyXqhisRJ-118" style="edgeStyle=orthogonalEdgeStyle;rounded=0;orthogonalLoop=1;jettySize=auto;html=1;" parent="1" source="b8iZS6fvLWdxyXqhisRJ-117" edge="1">
          <mxGeometry relative="1" as="geometry">
            <mxPoint x="1266.0526315789475" y="1945" as="targetPoint" />
          </mxGeometry>
        </mxCell>
        <mxCell id="b8iZS6fvLWdxyXqhisRJ-122" style="edgeStyle=orthogonalEdgeStyle;rounded=0;orthogonalLoop=1;jettySize=auto;html=1;" parent="1" source="b8iZS6fvLWdxyXqhisRJ-117" edge="1">
          <mxGeometry relative="1" as="geometry">
            <mxPoint x="1189" y="2027.8000000000002" as="targetPoint" />
          </mxGeometry>
        </mxCell>
        <mxCell id="b8iZS6fvLWdxyXqhisRJ-117" value="if count = 0" style="rhombus;whiteSpace=wrap;html=1;" parent="1" vertex="1">
          <mxGeometry x="1149" y="1905" width="80" height="80" as="geometry" />
        </mxCell>
        <mxCell id="b8iZS6fvLWdxyXqhisRJ-120" value="Log occulter results with sd, slewTime_2&amp;nbsp;&lt;br&gt;&lt;b&gt;return DRM, sInd, intTime, slewTime[sInd]&lt;/b&gt;&lt;br&gt;&lt;b&gt;count = count +1&lt;/b&gt;" style="text;html=1;align=center;verticalAlign=middle;resizable=0;points=[];autosize=1;strokeColor=none;fillColor=none;" parent="1" vertex="1">
          <mxGeometry x="1261" y="1923" width="257" height="55" as="geometry" />
        </mxCell>
        <mxCell id="b8iZS6fvLWdxyXqhisRJ-121" value="&lt;font style=&quot;font-size: 18px;&quot;&gt;Yes&lt;/font&gt;" style="text;html=1;align=center;verticalAlign=middle;resizable=0;points=[];autosize=1;strokeColor=none;fillColor=none;" parent="1" vertex="1">
          <mxGeometry x="1218" y="1911" width="47" height="34" as="geometry" />
        </mxCell>
        <mxCell id="b8iZS6fvLWdxyXqhisRJ-123" value="&lt;span style=&quot;font-size: 18px;&quot;&gt;No&lt;/span&gt;" style="text;html=1;align=center;verticalAlign=middle;resizable=0;points=[];autosize=1;strokeColor=none;fillColor=none;" parent="1" vertex="1">
          <mxGeometry x="1190" y="1978" width="41" height="34" as="geometry" />
        </mxCell>
        <mxCell id="b8iZS6fvLWdxyXqhisRJ-124" value="Log occulter results with sd_2, slewTimes_2&lt;b&gt;&amp;nbsp;&lt;br&gt;return DRM, sInd, intTime, slewTime[sInd]&lt;br&gt;count = 0&lt;br&gt;&lt;/b&gt;" style="text;html=1;align=center;verticalAlign=middle;resizable=0;points=[];autosize=1;strokeColor=none;fillColor=none;" parent="1" vertex="1">
          <mxGeometry x="1126.62" y="2032" width="257" height="55" as="geometry" />
        </mxCell>
        <mxCell id="b8iZS6fvLWdxyXqhisRJ-128" style="edgeStyle=orthogonalEdgeStyle;rounded=0;orthogonalLoop=1;jettySize=auto;html=1;entryX=0.5;entryY=0;entryDx=0;entryDy=0;" parent="1" source="b8iZS6fvLWdxyXqhisRJ-125" target="b8iZS6fvLWdxyXqhisRJ-127" edge="1">
          <mxGeometry relative="1" as="geometry" />
        </mxCell>
        <mxCell id="b8iZS6fvLWdxyXqhisRJ-125" value="&lt;font style=&quot;font-size: 18px;&quot;&gt;While ko_2&amp;nbsp; = 1&lt;/font&gt;" style="strokeWidth=2;html=1;shape=mxgraph.flowchart.decision;whiteSpace=wrap;" parent="1" vertex="1">
          <mxGeometry x="3072.13" y="2247" width="157" height="156" as="geometry" />
        </mxCell>
        <mxCell id="b8iZS6fvLWdxyXqhisRJ-126" value="" style="curved=1;endArrow=classic;html=1;rounded=0;entryX=1;entryY=0.5;entryDx=0;entryDy=0;exitX=0.5;exitY=0;exitDx=0;exitDy=0;" parent="1" source="b8iZS6fvLWdxyXqhisRJ-59" target="b8iZS6fvLWdxyXqhisRJ-53" edge="1">
          <mxGeometry width="50" height="50" relative="1" as="geometry">
            <mxPoint x="1246" y="2396" as="sourcePoint" />
            <mxPoint x="1296" y="2346" as="targetPoint" />
            <Array as="points">
              <mxPoint x="1164" y="2552" />
              <mxPoint x="1095" y="2442" />
              <mxPoint x="1042" y="2289" />
              <mxPoint x="1052" y="2118" />
            </Array>
          </mxGeometry>
        </mxCell>
        <mxCell id="b8iZS6fvLWdxyXqhisRJ-131" style="edgeStyle=orthogonalEdgeStyle;rounded=0;orthogonalLoop=1;jettySize=auto;html=1;" parent="1" source="b8iZS6fvLWdxyXqhisRJ-127" target="b8iZS6fvLWdxyXqhisRJ-130" edge="1">
          <mxGeometry relative="1" as="geometry" />
        </mxCell>
        <mxCell id="b8iZS6fvLWdxyXqhisRJ-132" style="edgeStyle=orthogonalEdgeStyle;rounded=0;orthogonalLoop=1;jettySize=auto;html=1;" parent="1" source="b8iZS6fvLWdxyXqhisRJ-127" edge="1">
          <mxGeometry relative="1" as="geometry">
            <mxPoint x="3029.5" y="2511" as="targetPoint" />
          </mxGeometry>
        </mxCell>
        <mxCell id="b8iZS6fvLWdxyXqhisRJ-127" value="Select the index with max value." style="rounded=1;whiteSpace=wrap;html=1;absoluteArcSize=1;arcSize=14;strokeWidth=2;fontSize=16;fontColor=#000000;" parent="1" vertex="1">
          <mxGeometry x="3100.63" y="2461" width="100" height="100" as="geometry" />
        </mxCell>
        <mxCell id="b8iZS6fvLWdxyXqhisRJ-134" style="edgeStyle=orthogonalEdgeStyle;rounded=0;orthogonalLoop=1;jettySize=auto;html=1;" parent="1" source="b8iZS6fvLWdxyXqhisRJ-130" target="b8iZS6fvLWdxyXqhisRJ-135" edge="1">
          <mxGeometry relative="1" as="geometry">
            <mxPoint x="3150.63" y="2875" as="targetPoint" />
            <Array as="points" />
          </mxGeometry>
        </mxCell>
        <mxCell id="b8iZS6fvLWdxyXqhisRJ-130" value="&lt;font style=&quot;font-size: 18px;&quot;&gt;Index koMap in the following method:&lt;br&gt;Product of element in--- row : First_Target, column = Current time : current time + intTime[first Target]&lt;br&gt;+&lt;br&gt;Product of elements in----Row: second Target, Columns = Current time : Current time&amp;nbsp; + intTime[first Target] + intTime_2[secondTarget] +&amp;nbsp;&amp;nbsp;&lt;/font&gt;" style="rounded=1;whiteSpace=wrap;html=1;absoluteArcSize=1;arcSize=14;strokeWidth=2;fontSize=16;fontColor=#000000;" parent="1" vertex="1">
          <mxGeometry x="2442" y="2640" width="1417.26" height="146" as="geometry" />
        </mxCell>
        <mxCell id="b8iZS6fvLWdxyXqhisRJ-133" value="&lt;font style=&quot;font-size: 18px;&quot;&gt;first index is first target&amp;nbsp;&lt;br&gt;second index is second target&lt;br&gt;&lt;/font&gt;" style="text;html=1;align=center;verticalAlign=middle;resizable=0;points=[];autosize=1;strokeColor=none;fillColor=none;" parent="1" vertex="1">
          <mxGeometry x="2768" y="2487" width="256" height="55" as="geometry" />
        </mxCell>
        <mxCell id="b8iZS6fvLWdxyXqhisRJ-136" style="edgeStyle=orthogonalEdgeStyle;rounded=0;orthogonalLoop=1;jettySize=auto;html=1;" parent="1" source="b8iZS6fvLWdxyXqhisRJ-135" edge="1">
          <mxGeometry relative="1" as="geometry">
            <mxPoint x="3150.63" y="3103.75" as="targetPoint" />
          </mxGeometry>
        </mxCell>
        <mxCell id="b8iZS6fvLWdxyXqhisRJ-140" style="edgeStyle=orthogonalEdgeStyle;rounded=0;orthogonalLoop=1;jettySize=auto;html=1;entryX=1;entryY=0.25;entryDx=0;entryDy=0;" parent="1" source="b8iZS6fvLWdxyXqhisRJ-135" target="b8iZS6fvLWdxyXqhisRJ-127" edge="1">
          <mxGeometry relative="1" as="geometry">
            <mxPoint x="4105" y="2501" as="targetPoint" />
            <Array as="points">
              <mxPoint x="4160" y="2955" />
              <mxPoint x="4160" y="2486" />
            </Array>
          </mxGeometry>
        </mxCell>
        <mxCell id="b8iZS6fvLWdxyXqhisRJ-141" value="&lt;font style=&quot;font-size: 18px;&quot;&gt;Set arbitrary low value&lt;br style=&quot;border-color: var(--border-color);&quot;&gt;to the selected index 1e-9&lt;br style=&quot;border-color: var(--border-color);&quot;&gt;ko = 1&lt;/font&gt;" style="edgeLabel;html=1;align=center;verticalAlign=middle;resizable=0;points=[];" parent="b8iZS6fvLWdxyXqhisRJ-140" vertex="1" connectable="0">
          <mxGeometry x="-0.6581" y="-4" relative="1" as="geometry">
            <mxPoint y="-1" as="offset" />
          </mxGeometry>
        </mxCell>
        <mxCell id="b8iZS6fvLWdxyXqhisRJ-135" value="&lt;font style=&quot;font-size: 18px;&quot;&gt;if ko_2 = 0&lt;/font&gt;" style="rhombus;whiteSpace=wrap;html=1;" parent="1" vertex="1">
          <mxGeometry x="3093.13" y="2894" width="115" height="121" as="geometry" />
        </mxCell>
        <mxCell id="b8iZS6fvLWdxyXqhisRJ-137" value="&lt;font style=&quot;font-size: 18px;&quot;&gt;slewTime = 0*d&lt;br&gt;sInd = first_target&lt;br&gt;waitTime = slewTime&lt;br&gt;&lt;b&gt;self.counter_2 = second_target&lt;br&gt;&lt;/b&gt;DRM = log occulter result&amp;nbsp;&lt;br&gt;&lt;b&gt;Return DRM, sInd, intTime, waitTime&lt;/b&gt;&lt;br&gt;&lt;/font&gt;" style="text;html=1;align=center;verticalAlign=middle;resizable=0;points=[];autosize=1;strokeColor=none;fillColor=none;" parent="1" vertex="1">
          <mxGeometry x="2986.13" y="3098" width="329" height="142" as="geometry" />
        </mxCell>
        <mxCell id="b8iZS6fvLWdxyXqhisRJ-138" value="Yes" style="text;html=1;align=center;verticalAlign=middle;resizable=0;points=[];autosize=1;strokeColor=none;fillColor=none;fontSize=18;" parent="1" vertex="1">
          <mxGeometry x="3078" y="3029" width="47" height="34" as="geometry" />
        </mxCell>
        <mxCell id="b8iZS6fvLWdxyXqhisRJ-139" value="No" style="text;html=1;align=center;verticalAlign=middle;resizable=0;points=[];autosize=1;strokeColor=none;fillColor=none;fontSize=18;" parent="1" vertex="1">
          <mxGeometry x="3245" y="2915" width="41" height="34" as="geometry" />
        </mxCell>
        <mxCell id="b8iZS6fvLWdxyXqhisRJ-143" value="" style="curved=1;endArrow=classic;html=1;rounded=0;entryX=0;entryY=0.5;entryDx=0;entryDy=0;" parent="1" source="b8iZS6fvLWdxyXqhisRJ-58" target="p1Gjewepy9sjovdagzMy-40" edge="1">
          <mxGeometry width="50" height="50" relative="1" as="geometry">
            <mxPoint x="483" y="1915" as="sourcePoint" />
            <mxPoint x="533" y="1865" as="targetPoint" />
            <Array as="points">
              <mxPoint x="533" y="1915" />
              <mxPoint x="483" y="1865" />
            </Array>
          </mxGeometry>
        </mxCell>
        <mxCell id="b8iZS6fvLWdxyXqhisRJ-144" value="" style="curved=1;endArrow=classic;html=1;rounded=0;exitX=1;exitY=0.5;exitDx=0;exitDy=0;entryX=0;entryY=0.5;entryDx=0;entryDy=0;" parent="1" source="b8iZS6fvLWdxyXqhisRJ-41" target="b8iZS6fvLWdxyXqhisRJ-17" edge="1">
          <mxGeometry width="50" height="50" relative="1" as="geometry">
            <mxPoint x="770" y="1878" as="sourcePoint" />
            <mxPoint x="820" y="1828" as="targetPoint" />
            <Array as="points">
              <mxPoint x="820" y="1878" />
              <mxPoint x="770" y="1828" />
            </Array>
          </mxGeometry>
        </mxCell>
        <mxCell id="b8iZS6fvLWdxyXqhisRJ-145" style="edgeStyle=orthogonalEdgeStyle;rounded=0;orthogonalLoop=1;jettySize=auto;html=1;fontSize=18;" parent="1" source="b8iZS6fvLWdxyXqhisRJ-146" edge="1">
          <mxGeometry relative="1" as="geometry">
            <mxPoint x="1854.500000000001" y="2351.5" as="targetPoint" />
          </mxGeometry>
        </mxCell>
        <mxCell id="b8iZS6fvLWdxyXqhisRJ-146" value="increase starVisit[sInd] by 1&lt;br&gt;&lt;div style=&quot;color: rgb(212, 212, 212); background-color: rgb(30, 30, 30); font-family: Consolas, &amp;quot;Courier New&amp;quot;, monospace; font-size: 14px; line-height: 19px;&quot;&gt;self.&lt;span style=&quot;color: #9cdcfe;&quot;&gt;lastObsTimes&lt;/span&gt;[&lt;span style=&quot;color: #9cdcfe;&quot;&gt;sInd&lt;/span&gt;] = &lt;span style=&quot;color: #9cdcfe;&quot;&gt;startTimesNorm&lt;/span&gt;[&lt;span style=&quot;color: #9cdcfe;&quot;&gt;sInd&lt;/span&gt;]&lt;/div&gt;" style="text;html=1;align=center;verticalAlign=middle;resizable=0;points=[];autosize=1;strokeColor=none;fillColor=none;fontSize=18;" parent="1" vertex="1">
          <mxGeometry x="1668.5" y="2236" width="372" height="53" as="geometry" />
        </mxCell>
        <mxCell id="b8iZS6fvLWdxyXqhisRJ-147" value="&lt;b&gt;Return Required Values (Final return by next_target method)&lt;/b&gt;" style="text;html=1;align=center;verticalAlign=middle;resizable=0;points=[];autosize=1;strokeColor=none;fillColor=none;fontSize=18;" parent="1" vertex="1">
          <mxGeometry x="1587" y="2362" width="535" height="34" as="geometry" />
        </mxCell>
        <mxCell id="b8iZS6fvLWdxyXqhisRJ-148" value="" style="curved=1;endArrow=classic;html=1;rounded=0;entryX=0.437;entryY=-0.132;entryDx=0;entryDy=0;entryPerimeter=0;" parent="1" source="b8iZS6fvLWdxyXqhisRJ-124" target="b8iZS6fvLWdxyXqhisRJ-146" edge="1">
          <mxGeometry width="50" height="50" relative="1" as="geometry">
            <mxPoint x="1507" y="2215" as="sourcePoint" />
            <mxPoint x="1557" y="2165" as="targetPoint" />
            <Array as="points">
              <mxPoint x="1557" y="2215" />
              <mxPoint x="1507" y="2165" />
            </Array>
          </mxGeometry>
        </mxCell>
        <mxCell id="b8iZS6fvLWdxyXqhisRJ-149" value="" style="curved=1;endArrow=classic;html=1;rounded=0;" parent="1" source="MMasnTg1ly4rQGJmZYbG-61" edge="1">
          <mxGeometry width="50" height="50" relative="1" as="geometry">
            <mxPoint x="2099" y="2149" as="sourcePoint" />
            <mxPoint x="1938" y="2213" as="targetPoint" />
            <Array as="points">
              <mxPoint x="2149" y="2149" />
              <mxPoint x="2099" y="2099" />
            </Array>
          </mxGeometry>
        </mxCell>
        <mxCell id="2xSAy8wzF72pDICXeRzi-1" value="&lt;div&gt;&lt;span style=&quot;font-size: 16px;&quot;&gt;i = 0 , j = 0&lt;/span&gt;&lt;/div&gt;" style="text;html=1;align=center;verticalAlign=middle;resizable=0;points=[];autosize=1;strokeColor=none;fillColor=none;" parent="1" vertex="1">
          <mxGeometry x="1085.12" y="3169" width="93" height="31" as="geometry" />
        </mxCell>
        <mxCell id="2xSAy8wzF72pDICXeRzi-3" value="i = i +1&lt;br&gt;j = j+1" style="text;html=1;align=center;verticalAlign=middle;resizable=0;points=[];autosize=1;strokeColor=none;fillColor=none;fontSize=16;fontColor=#000000;" parent="1" vertex="1">
          <mxGeometry x="1273" y="3866" width="66" height="50" as="geometry" />
        </mxCell>
        <mxCell id="2xSAy8wzF72pDICXeRzi-15" value="" style="edgeStyle=orthogonalEdgeStyle;rounded=0;orthogonalLoop=1;jettySize=auto;html=1;" parent="1" source="2xSAy8wzF72pDICXeRzi-4" target="2xSAy8wzF72pDICXeRzi-8" edge="1">
          <mxGeometry relative="1" as="geometry" />
        </mxCell>
        <mxCell id="2xSAy8wzF72pDICXeRzi-16" style="edgeStyle=orthogonalEdgeStyle;rounded=0;orthogonalLoop=1;jettySize=auto;html=1;" parent="1" source="2xSAy8wzF72pDICXeRzi-4" edge="1">
          <mxGeometry relative="1" as="geometry">
            <mxPoint x="1712" y="3841" as="targetPoint" />
          </mxGeometry>
        </mxCell>
        <mxCell id="2xSAy8wzF72pDICXeRzi-4" value="if i&amp;gt;50k&lt;br&gt;&amp;amp;&lt;br&gt;j = 50k" style="strokeWidth=2;html=1;shape=mxgraph.flowchart.decision;whiteSpace=wrap;fontSize=16;fontColor=#000000;" parent="1" vertex="1">
          <mxGeometry x="1451" y="3784.5" width="120" height="113" as="geometry" />
        </mxCell>
        <mxCell id="2xSAy8wzF72pDICXeRzi-8" value="&lt;font style=&quot;font-size: 16px;&quot;&gt;Recalculate the cost matrix &lt;br&gt;at an advanced time&lt;/font&gt;" style="text;html=1;align=center;verticalAlign=middle;resizable=0;points=[];autosize=1;strokeColor=none;fillColor=none;" parent="1" vertex="1">
          <mxGeometry x="1406" y="3944" width="210" height="50" as="geometry" />
        </mxCell>
        <mxCell id="2xSAy8wzF72pDICXeRzi-10" value="yes" style="text;html=1;align=center;verticalAlign=middle;resizable=0;points=[];autosize=1;strokeColor=none;fillColor=none;" parent="1" vertex="1">
          <mxGeometry x="1522" y="3901" width="37" height="26" as="geometry" />
        </mxCell>
        <mxCell id="2xSAy8wzF72pDICXeRzi-17" value="No" style="text;html=1;align=center;verticalAlign=middle;resizable=0;points=[];autosize=1;strokeColor=none;fillColor=none;" parent="1" vertex="1">
          <mxGeometry x="1619" y="3806" width="33" height="26" as="geometry" />
        </mxCell>
        <mxCell id="2xSAy8wzF72pDICXeRzi-19" style="edgeStyle=orthogonalEdgeStyle;rounded=0;orthogonalLoop=1;jettySize=auto;html=1;" parent="1" source="2xSAy8wzF72pDICXeRzi-18" edge="1">
          <mxGeometry relative="1" as="geometry">
            <mxPoint x="1981.333333333333" y="3842" as="targetPoint" />
          </mxGeometry>
        </mxCell>
        <mxCell id="2xSAy8wzF72pDICXeRzi-18" value="Pass" style="text;html=1;align=center;verticalAlign=middle;resizable=0;points=[];autosize=1;strokeColor=none;fillColor=none;" parent="1" vertex="1">
          <mxGeometry x="1715" y="3829" width="45" height="26" as="geometry" />
        </mxCell>
        <mxCell id="Y4v3uxrNZRps0fwALOIX-4" value="TwoStarShade_mission module &lt;b&gt;init&lt;/b&gt;:&lt;br&gt;&lt;ul&gt;&lt;li&gt;Counter, counter_1, counter_2 counter_3 = 0&lt;/li&gt;&lt;li&gt;scMass=[6000.0, 6000.0]&lt;/li&gt;&lt;li&gt;dryMass=[3400.0, 3400.0]&lt;/li&gt;&lt;/ul&gt;" style="rounded=1;whiteSpace=wrap;html=1;fontSize=16;fillColor=#fff2cc;gradientColor=#ffd966;strokeColor=#d6b656;" vertex="1" parent="1">
          <mxGeometry x="-1658.58" y="745" width="299" height="148" as="geometry" />
        </mxCell>
        <mxCell id="Y4v3uxrNZRps0fwALOIX-5" style="edgeStyle=orthogonalEdgeStyle;rounded=0;orthogonalLoop=1;jettySize=auto;html=1;entryX=0.5;entryY=1;entryDx=0;entryDy=0;" edge="1" parent="1" source="Y4v3uxrNZRps0fwALOIX-7" target="Y4v3uxrNZRps0fwALOIX-4">
          <mxGeometry relative="1" as="geometry" />
        </mxCell>
        <mxCell id="Y4v3uxrNZRps0fwALOIX-6" value="" style="edgeStyle=orthogonalEdgeStyle;rounded=0;orthogonalLoop=1;jettySize=auto;html=1;" edge="1" parent="1" source="Y4v3uxrNZRps0fwALOIX-7" target="Y4v3uxrNZRps0fwALOIX-10">
          <mxGeometry relative="1" as="geometry" />
        </mxCell>
        <mxCell id="Y4v3uxrNZRps0fwALOIX-7" value="TwoStarShades_mission observatory module(Obs)" style="rounded=1;whiteSpace=wrap;html=1;fontSize=16;" vertex="1" parent="1">
          <mxGeometry x="-1615" y="927" width="211.85" height="79.85" as="geometry" />
        </mxCell>
        <mxCell id="Y4v3uxrNZRps0fwALOIX-8" style="edgeStyle=orthogonalEdgeStyle;rounded=0;orthogonalLoop=1;jettySize=auto;html=1;exitX=0;exitY=0.5;exitDx=0;exitDy=0;entryX=1.022;entryY=0.554;entryDx=0;entryDy=0;entryPerimeter=0;fontSize=16;fontColor=#000000;" edge="1" parent="1" source="Y4v3uxrNZRps0fwALOIX-10" target="Y4v3uxrNZRps0fwALOIX-11">
          <mxGeometry relative="1" as="geometry" />
        </mxCell>
        <mxCell id="Y4v3uxrNZRps0fwALOIX-21" value="" style="edgeStyle=orthogonalEdgeStyle;rounded=0;orthogonalLoop=1;jettySize=auto;html=1;" edge="1" parent="1" source="Y4v3uxrNZRps0fwALOIX-10" target="Y4v3uxrNZRps0fwALOIX-14">
          <mxGeometry relative="1" as="geometry" />
        </mxCell>
        <mxCell id="Y4v3uxrNZRps0fwALOIX-10" value="Methods which keep track of different StarShade attributes such as mass_used, deltaV" style="rounded=1;whiteSpace=wrap;html=1;fontSize=16;fontColor=#000000;" vertex="1" parent="1">
          <mxGeometry x="-1603.58" y="1025" width="189" height="125" as="geometry" />
        </mxCell>
        <mxCell id="Y4v3uxrNZRps0fwALOIX-11" value="mass usage&lt;br&gt;Forces on starshade&lt;br&gt;log_OcculterResults" style="text;html=1;align=center;verticalAlign=middle;resizable=0;points=[];autosize=1;strokeColor=none;fillColor=none;fontSize=16;fontColor=#000000;" vertex="1" parent="1">
          <mxGeometry x="-1838" y="1049" width="164" height="70" as="geometry" />
        </mxCell>
        <mxCell id="Y4v3uxrNZRps0fwALOIX-13" style="edgeStyle=orthogonalEdgeStyle;rounded=0;orthogonalLoop=1;jettySize=auto;html=1;exitX=0.5;exitY=1;exitDx=0;exitDy=0;exitPerimeter=0;fontSize=16;fontColor=#000000;entryX=0.5;entryY=0;entryDx=0;entryDy=0;" edge="1" parent="1" source="Y4v3uxrNZRps0fwALOIX-14" target="Y4v3uxrNZRps0fwALOIX-18">
          <mxGeometry relative="1" as="geometry">
            <mxPoint x="-1285" y="1256" as="targetPoint" />
          </mxGeometry>
        </mxCell>
        <mxCell id="Y4v3uxrNZRps0fwALOIX-19" style="edgeStyle=orthogonalEdgeStyle;rounded=0;orthogonalLoop=1;jettySize=auto;html=1;entryX=0;entryY=0.5;entryDx=0;entryDy=0;" edge="1" parent="1" source="Y4v3uxrNZRps0fwALOIX-14" target="Y4v3uxrNZRps0fwALOIX-17">
          <mxGeometry relative="1" as="geometry" />
        </mxCell>
        <mxCell id="Y4v3uxrNZRps0fwALOIX-14" value="At current time,&lt;br&gt;if Counter ==0" style="strokeWidth=2;html=1;shape=mxgraph.flowchart.decision;whiteSpace=wrap;fontSize=16;fontColor=#000000;" vertex="1" parent="1">
          <mxGeometry x="-1370.08" y="1004" width="170" height="167" as="geometry" />
        </mxCell>
        <mxCell id="Y4v3uxrNZRps0fwALOIX-15" value="yes" style="text;html=1;align=center;verticalAlign=middle;resizable=0;points=[];autosize=1;strokeColor=none;fillColor=none;fontSize=16;fontColor=#000000;" vertex="1" parent="1">
          <mxGeometry x="-1190.58" y="1059" width="43" height="31" as="geometry" />
        </mxCell>
        <mxCell id="Y4v3uxrNZRps0fwALOIX-16" value="No" style="text;html=1;align=center;verticalAlign=middle;resizable=0;points=[];autosize=1;strokeColor=none;fillColor=none;fontSize=16;fontColor=#000000;" vertex="1" parent="1">
          <mxGeometry x="-1340" y="1171" width="38" height="31" as="geometry" />
        </mxCell>
        <mxCell id="Y4v3uxrNZRps0fwALOIX-17" value="The method calculates required attributes and sets counter to 1" style="rounded=1;whiteSpace=wrap;html=1;fontSize=16;fontColor=#000000;" vertex="1" parent="1">
          <mxGeometry x="-1129" y="1038.5" width="164" height="98" as="geometry" />
        </mxCell>
        <mxCell id="Y4v3uxrNZRps0fwALOIX-18" value="The method calculates required attributes and sets counter to 0&lt;br&gt;Note: This steps happens after one observation is made.&amp;nbsp;" style="rounded=1;whiteSpace=wrap;html=1;fontSize=16;fontColor=#000000;" vertex="1" parent="1">
          <mxGeometry x="-1396.33" y="1230" width="222.5" height="186" as="geometry" />
        </mxCell>
      </root>
    </mxGraphModel>
  </diagram>
</mxfile>
